<svg version="1.1" id="Layer_1" xmlns="http://www.w3.org/2000/svg" xmlns:xlink="http://www.w3.org/1999/xlink" x="0px" y="0px"
	 width="100%" viewBox="0 0 1024 672" enable-background="new 0 0 1024 672" xml:space="preserve">
<path fill="#000000" opacity="1.000000" stroke="none" 
	d="
M620.493530,127.926559 
	C632.643616,137.233841 636.044250,150.304077 637.120605,164.214554 
	C637.950989,174.945740 642.304749,184.019745 648.465576,192.511459 
	C651.777344,197.075958 655.026855,201.693237 658.105347,206.416473 
	C660.079834,209.445709 661.060059,212.786377 659.153992,216.309448 
	C657.856689,218.707260 655.723999,219.928360 653.087036,220.120087 
	C650.600891,220.300858 649.020020,218.837082 648.111389,216.676590 
	C647.220520,214.558472 645.688416,213.296829 643.672974,212.215164 
	C637.966248,209.152481 635.245972,202.941437 630.026306,198.637909 
	C628.722473,208.016800 627.421753,216.971420 626.295288,225.947937 
	C626.142090,227.168747 626.607971,228.635223 627.213379,229.758133 
	C636.351013,246.706711 641.647766,265.162506 648.269165,283.099091 
	C651.419739,291.633698 651.486206,291.609253 659.913818,289.038361 
	C660.232300,288.941193 660.547485,288.833130 660.866821,288.739075 
	C664.535156,287.658478 668.617188,286.882080 670.718140,290.763062 
	C672.914978,294.821320 670.229675,298.077087 666.952759,300.518494 
	C660.542236,305.294403 654.159424,310.162048 646.882751,313.568268 
	C639.107361,317.207886 636.192200,315.555817 634.495056,307.209045 
	C632.818115,298.961853 628.285278,291.811523 625.339478,284.045013 
	C622.176331,275.705170 618.775879,267.455322 615.105835,258.227905 
	C609.008972,280.084442 595.221741,296.763550 585.421448,315.544525 
	C583.180847,319.838348 583.718323,322.067261 588.019287,324.286041 
	C589.494263,325.047028 591.125000,325.514160 592.574036,326.315460 
	C594.493042,327.376556 596.380005,328.644867 596.193909,331.230927 
	C596.016418,333.698273 594.152954,334.933960 592.225952,335.993713 
	C589.146729,337.687134 585.713806,337.758392 582.464600,337.188934 
	C574.806335,335.846710 568.001404,332.204651 561.528198,328.109589 
	C558.418274,326.142181 558.610779,323.046570 560.056030,319.675720 
	C567.526794,302.251312 576.469116,285.589661 585.763550,269.097687 
	C590.232239,261.168457 589.800354,252.064285 591.840271,243.565048 
	C594.772827,231.346741 589.107849,221.604584 584.520874,211.415802 
	C583.399841,208.925751 582.603271,206.519592 582.635864,203.772629 
	C582.712708,197.289078 582.660461,190.803970 582.472717,184.301254 
	C582.455688,194.377243 578.169312,204.027832 579.666443,214.261597 
	C579.759094,214.895096 579.506104,215.578003 579.421265,216.238876 
	C578.781067,221.224579 575.868896,224.320801 572.046387,224.077103 
	C568.188599,223.831161 565.079895,219.773895 565.310608,214.963181 
	C565.483032,211.367355 566.204407,207.907867 565.991089,204.164825 
	C564.688293,181.301819 567.446167,158.994247 576.850220,137.845734 
	C580.586914,129.442368 585.864929,122.711815 595.617554,120.809372 
	C599.860107,119.981773 599.120056,117.105141 597.745850,114.277245 
	C595.362000,109.371643 592.383911,104.812462 592.574585,98.886215 
	C592.888550,89.131042 597.125427,83.281029 606.760559,81.099213 
	C615.617554,79.093605 623.954468,81.289948 631.893250,85.175964 
	C634.395142,86.400620 635.103577,88.727539 633.327515,91.023262 
	C629.832947,95.540413 631.568298,99.890518 633.708618,104.031738 
	C634.776001,106.096924 635.286621,107.496307 633.481262,109.286674 
	C632.703674,110.057732 632.045532,111.245865 631.908875,112.317879 
	C631.100586,118.661362 628.683289,123.460930 621.591125,124.531479 
	C620.013306,124.769646 619.612915,126.150642 620.493530,127.926559 
z"/>
<path fill="#000000" opacity="1.000000" stroke="none" 
	d="
M209.054077,383.315125 
	C210.524811,366.614929 212.008774,350.379486 217.522354,334.865692 
	C219.081650,330.478241 220.620834,326.044708 222.670807,321.879120 
	C226.322876,314.458069 231.763916,308.824524 239.909363,306.179443 
	C244.609283,304.653259 245.378586,302.432312 243.217361,297.860016 
	C242.223343,295.757050 241.280136,293.622314 240.455612,291.448242 
	C233.322617,272.640320 248.002457,261.065338 264.204376,262.860809 
	C266.827576,263.151489 269.441711,263.863953 271.960571,264.686188 
	C277.459808,266.481323 277.643982,267.924591 275.986053,273.358246 
	C274.713806,277.527863 274.181488,282.207794 276.994232,286.251648 
	C278.414185,288.293030 278.927612,290.042236 276.897034,291.969208 
	C275.610779,293.189819 275.494476,294.888580 275.287750,296.572601 
	C274.658630,301.697784 272.719086,305.839539 267.134399,307.294312 
	C264.199677,308.058838 263.596802,310.227753 265.800598,312.053864 
	C279.915588,323.749908 280.661865,340.337219 282.242950,356.564850 
	C282.939789,363.717194 284.747864,370.321686 289.370667,375.906403 
	C294.934570,382.628052 297.210388,391.189423 302.108185,398.287872 
	C303.791656,400.727753 303.701996,403.750183 303.083527,406.537354 
	C302.371796,409.745056 300.275909,411.901123 296.840698,412.053497 
	C293.516541,412.200989 291.490540,410.267120 290.912048,407.115082 
	C290.390106,404.270996 288.792450,402.320892 286.655273,400.602936 
	C281.844727,396.736084 279.004028,391.030060 273.978912,386.634369 
	C271.866272,392.417725 272.386475,398.138916 271.425568,403.610382 
	C270.650360,408.024384 270.468353,412.547485 269.601532,416.938995 
	C268.835938,420.817535 270.202850,424.187256 271.351990,427.621918 
	C277.582764,446.244507 284.031982,464.795471 290.080170,483.476562 
	C291.520264,487.924530 293.551636,489.545837 298.008545,488.056335 
	C299.076965,487.699280 300.331604,487.694946 301.473724,487.805756 
	C303.863403,488.037537 306.191284,488.701599 307.055817,491.262329 
	C307.853241,493.624390 306.663086,495.557068 304.874969,496.957275 
	C298.523651,501.930756 291.500549,505.762360 283.774567,508.043121 
	C279.193024,509.395630 277.270660,507.260651 275.566162,502.511505 
	C270.017609,487.052185 264.056213,471.741028 258.384125,456.718323 
	C256.864288,456.382599 256.589203,457.012268 256.367706,457.625824 
	C250.200119,474.711700 242.409637,491.125671 235.556747,507.927460 
	C233.404053,513.205383 234.235123,514.877014 239.765076,516.739685 
	C240.553528,517.005249 241.348602,517.251892 242.132538,517.530029 
	C244.440140,518.348816 246.559143,519.620361 246.799652,522.214478 
	C247.056671,524.986450 244.779877,526.211731 242.627853,527.216553 
	C238.750977,529.026672 234.810730,529.819275 230.541931,528.369995 
	C224.843292,526.435242 219.348816,524.036987 214.117966,521.120605 
	C210.281769,518.981812 209.130112,515.685242 210.883408,511.347961 
	C218.226746,493.182068 225.440186,474.963745 232.721420,456.772736 
	C236.096191,448.341461 236.700562,439.297119 238.560318,430.531647 
	C238.866638,429.087891 238.757950,427.560608 238.112137,426.120880 
	C234.584610,418.256897 230.983994,410.487640 228.350174,402.180756 
	C226.434586,396.139130 227.569443,389.963928 225.481186,383.715057 
	C224.815659,391.203339 221.723602,397.786011 222.069946,405.127350 
	C222.247604,408.893036 219.415222,411.609772 215.100266,411.268890 
	C210.506500,410.906036 208.509781,407.506042 208.879578,403.654083 
	C209.518799,396.995728 208.554474,390.391907 209.054077,383.315125 
z"/>
<path fill="#000000" opacity="1.000000" stroke="none" 
	d="
M493.223846,141.640900 
	C496.617065,133.405136 502.830231,129.951202 511.006561,129.704956 
	C515.987793,129.554932 521.015259,129.273438 525.907715,130.687469 
	C530.832825,132.110947 531.390015,133.770447 530.117004,138.621094 
	C528.912048,143.212570 527.880859,148.097687 531.640381,152.284332 
	C532.311157,153.031372 533.312805,154.191544 532.700989,154.885818 
	C528.988220,159.098495 529.934570,165.140030 526.777039,169.480972 
	C525.932068,170.642700 524.674011,171.700928 523.372192,172.296524 
	C519.502319,174.067078 518.590942,176.073547 522.033264,179.264740 
	C532.085693,188.583954 536.244202,200.574585 536.054504,213.842438 
	C535.870300,226.722931 540.225464,237.952698 546.424072,248.727676 
	C550.499451,255.811844 551.592896,264.034851 555.566772,271.195496 
	C557.411133,274.518860 556.994080,278.729187 554.839172,282.232971 
	C552.157471,286.593231 544.929749,286.712677 544.003540,282.083221 
	C542.593140,275.034149 537.300354,270.761200 534.204468,265.003143 
	C532.506775,261.845612 530.529480,258.838409 528.102966,255.964935 
	C527.894775,263.786438 525.514648,271.537292 529.277283,278.987183 
	C538.895386,298.030579 541.211609,319.010254 545.299927,339.519348 
	C545.332275,339.681793 545.311951,339.855194 545.348389,340.016205 
	C548.030823,351.870514 545.668762,350.995026 557.596008,348.973633 
	C560.472595,348.486145 562.995300,349.140900 564.439087,351.845978 
	C566.027405,354.821991 564.437988,357.201477 562.113220,358.696472 
	C554.205444,363.781860 545.718750,367.641357 536.252258,368.578400 
	C530.535217,369.144257 529.662170,367.434113 528.512451,361.654877 
	C526.342163,350.745117 522.976379,340.067139 520.949280,329.136719 
	C519.098572,319.157227 516.052856,309.858521 510.210144,301.534393 
	C509.373291,300.342102 508.972565,298.768097 507.208160,298.233704 
	C505.050446,300.212006 505.280487,303.079254 504.758850,305.569092 
	C500.540833,325.701965 492.307404,344.526489 485.857422,363.928741 
	C483.758698,370.241821 483.964172,371.057190 490.332733,373.441589 
	C493.203796,374.516541 496.402740,375.618958 496.395813,379.185944 
	C496.388031,383.188538 492.705597,383.976044 489.715118,384.814392 
	C486.148010,385.814362 482.432648,385.750946 478.861908,384.723297 
	C475.991791,383.897278 473.180084,382.821564 470.418304,381.674072 
	C459.502899,377.138794 460.288605,377.307343 463.191833,365.788727 
	C467.754547,347.686035 475.402313,330.421448 479.023926,312.259155 
	C482.196320,296.349762 483.912964,279.688904 479.603516,263.366394 
	C478.058380,257.514038 480.159088,251.783096 479.805786,245.979279 
	C479.683929,243.977707 480.048004,241.918640 478.417969,240.363327 
	C471.210693,233.486282 470.739227,224.591522 471.920532,215.739761 
	C473.125488,206.710831 475.299866,197.783951 477.492432,188.921890 
	C479.653748,180.185989 484.451050,173.538727 493.697052,170.945343 
	C497.665680,169.832184 498.427032,167.158539 496.466064,163.612289 
	C492.712860,156.824951 491.126801,149.691986 493.223846,141.640900 
z"/>
<path fill="#000000" opacity="1.000000" stroke="none" 
	d="
M799.162781,352.019287 
	C800.682251,356.664917 802.187439,360.899902 803.490662,365.196198 
	C804.778137,369.440155 807.405090,370.504364 811.514038,369.301361 
	C814.375000,368.463684 817.391663,368.170685 820.282715,367.418854 
	C822.392090,366.870270 824.376404,366.702423 825.632019,368.717987 
	C827.060364,371.010895 826.924133,373.492554 825.509216,375.815430 
	C822.983398,379.961945 800.882874,390.271759 796.191284,389.574585 
	C793.485901,389.172546 791.730774,387.591980 791.827820,384.973450 
	C792.019104,379.812622 789.324890,375.725342 787.334900,371.382477 
	C782.829468,361.550018 777.297791,352.180328 773.922241,341.842316 
	C773.083374,339.273407 771.694824,338.699524 769.053040,339.012360 
	C764.096985,339.599274 759.058228,339.740326 754.113525,338.854950 
	C751.710510,338.424652 750.357727,339.337311 749.137634,341.167145 
	C741.098694,353.223389 732.895630,365.172577 725.017578,377.332581 
	C721.082520,383.406464 724.094727,390.736328 730.977600,393.052277 
	C733.719360,393.974792 736.633911,395.039368 736.406799,398.622864 
	C736.179749,402.204926 733.084839,402.778564 730.319397,403.503265 
	C725.820679,404.682190 721.556885,403.758789 717.978699,401.105530 
	C713.039551,397.443146 708.250793,393.514282 703.796814,389.279724 
	C699.534241,385.227051 699.563965,380.890442 704.238647,377.330078 
	C708.910706,373.771667 711.547607,369.257751 713.208069,363.929504 
	C716.120056,354.585236 720.813416,346.217285 726.809448,338.530945 
	C728.718750,336.083466 729.957092,333.706268 728.189636,330.363312 
	C726.601807,327.360107 728.434204,324.145081 729.100891,321.125641 
	C730.605957,314.309204 732.318848,307.529724 734.228333,300.815125 
	C735.256348,297.200073 733.754578,295.844543 730.531616,295.449615 
	C727.068054,295.025177 723.598022,294.653717 720.132690,294.243530 
	C713.585083,293.468567 710.725647,290.521240 711.442322,283.981232 
	C712.371460,275.503540 715.599365,267.573700 718.570923,259.633209 
	C718.947998,258.625671 719.930725,257.247986 720.794861,257.117920 
	C725.839539,256.358521 726.557678,252.158279 728.032776,248.540421 
	C732.497192,237.590591 736.875183,226.602478 742.744629,216.294067 
	C744.421021,213.349792 746.401367,210.895386 749.827942,209.637115 
	C756.666504,207.125931 756.950623,205.277359 751.736084,200.083618 
	C751.165527,199.515381 750.648499,198.893539 749.475647,197.601379 
	C749.837646,203.489532 748.130920,207.862991 744.166565,211.034149 
	C741.089783,213.495331 737.460144,214.643784 733.431641,214.313110 
	C731.362366,214.143250 729.336487,213.814194 728.358154,211.758163 
	C727.398804,209.741974 729.258667,208.772537 730.357544,207.644791 
	C732.231201,205.721970 732.940430,203.441132 732.883911,200.824982 
	C732.826355,198.160202 732.673950,195.485580 732.829346,192.830856 
	C733.071777,188.690384 734.150513,184.116531 737.989990,182.598618 
	C743.949524,180.242508 746.820007,175.341934 750.705750,171.024582 
	C757.812622,163.128326 771.610718,162.611664 779.987549,169.284225 
	C782.563354,171.336044 783.510376,173.926666 783.392578,177.167999 
	C783.218567,181.956940 782.821716,186.679092 785.050781,191.359146 
	C786.584656,194.579559 780.122986,205.231293 776.450317,206.662201 
	C770.532837,208.967758 769.784363,211.255890 774.382202,215.431229 
	C783.146667,223.390381 786.245056,233.665771 787.214539,244.865601 
	C787.897278,252.752747 790.251038,259.869598 795.793945,265.635742 
	C802.166138,272.264618 805.842407,280.823456 811.879028,287.698944 
	C813.756653,289.837463 814.543518,292.693665 814.249207,295.654144 
	C813.914246,299.023804 812.074219,301.306213 808.764038,301.916412 
	C805.746643,302.472687 803.608948,300.892609 802.531494,298.087250 
	C801.401245,295.144501 799.295288,293.122681 796.814514,291.342163 
	C790.681458,286.940338 786.954041,280.152008 780.910217,274.939270 
	C778.874817,283.540558 781.539978,291.058044 783.933594,298.575287 
	C786.306152,306.026489 789.134155,313.343536 791.243347,320.865021 
	C794.099731,331.051239 794.933044,341.760773 799.162781,352.019287 
M740.864929,250.973648 
	C740.864929,246.693008 740.864929,242.412384 740.864929,238.131744 
	C740.558533,238.065048 740.252136,237.998352 739.945740,237.931671 
	C737.419128,243.867233 734.892578,249.802795 732.194397,256.141510 
	C735.794556,256.745300 738.345764,257.207886 740.902100,255.929459 
	C740.902100,254.458344 740.902100,253.144333 740.864929,250.973648 
z"/>
<path fill="#000000" opacity="1.000000" stroke="none" 
	d="
M301.750488,303.101135 
	C303.920441,293.085815 306.049377,283.519470 310.381073,274.596008 
	C313.901703,267.343353 319.023529,262.021301 326.975372,259.804047 
	C331.162598,258.636475 331.740692,255.942413 329.737213,252.557159 
	C327.949280,249.536087 326.193604,246.527237 325.138702,243.166382 
	C320.553772,228.558685 329.247253,216.491501 344.612366,216.334839 
	C349.642639,216.283554 354.525879,217.502289 359.146515,219.512848 
	C362.711395,221.063995 364.293549,223.197281 362.107666,227.346420 
	C359.910461,231.517014 360.588898,236.079742 362.948303,240.056458 
	C364.213501,242.188950 364.906189,243.628693 362.940216,245.725540 
	C362.031219,246.695053 361.701050,248.484726 361.641846,249.924515 
	C361.413391,255.478836 359.194275,259.441193 353.694336,261.344025 
	C350.855103,262.326324 350.653290,264.565430 352.606445,266.407379 
	C364.910889,278.011505 366.077515,292.994415 365.259827,308.420410 
	C364.699249,318.997223 366.087036,328.990601 371.509552,338.206055 
	C375.921234,345.703644 377.782501,354.259827 381.532318,362.037933 
	C383.167480,365.429718 383.540192,369.124939 381.691101,372.639160 
	C380.142853,375.581451 377.681702,377.060547 374.261688,376.368500 
	C371.181458,375.745148 369.740204,373.628967 369.713104,370.654266 
	C369.683228,367.372314 368.250092,364.880463 365.835938,362.893005 
	C362.492645,360.140656 361.404236,355.516052 357.586090,352.779907 
	C355.578369,355.165924 355.991974,357.962189 355.466187,360.425751 
	C354.808960,363.505280 355.145416,366.899872 354.031738,369.760925 
	C349.434937,381.570190 351.722382,392.622009 356.162384,403.939331 
	C360.896881,416.007416 364.804810,428.409760 368.778137,440.761230 
	C370.225281,445.259735 372.617706,446.599640 376.971222,445.131226 
	C378.696259,444.549377 380.513275,444.142303 382.320709,443.927368 
	C384.607117,443.655518 386.748352,444.298737 387.840210,446.484772 
	C388.946259,448.699188 388.275726,450.926758 386.387726,452.306732 
	C379.130005,457.611694 371.826721,462.930511 363.173462,465.790619 
	C358.843994,467.221588 356.686615,465.189484 354.911407,460.329956 
	C350.359589,447.869537 345.431427,435.546600 340.379395,422.457977 
	C332.231079,438.830475 325.860168,455.001556 319.649414,471.321777 
	C321.631958,474.171570 324.771423,474.821808 327.784607,475.726959 
	C330.101685,476.422974 332.302216,477.442108 332.549957,480.196533 
	C332.800842,482.985718 330.693939,484.245972 328.587677,485.390656 
	C324.413574,487.659210 319.915710,487.992340 315.487793,486.811096 
	C310.517273,485.485107 305.634186,483.750092 300.840576,481.868225 
	C297.061554,480.384613 294.525665,477.405731 295.950531,473.236847 
	C299.305389,463.421234 300.803772,453.101532 305.780457,443.669098 
	C310.712830,434.320679 316.043579,424.906281 317.989349,414.256561 
	C319.630035,405.276733 321.004700,396.247864 322.442474,387.231995 
	C322.566956,386.451447 322.453796,385.537811 322.161743,384.800598 
	C318.979919,376.770020 316.158722,368.507812 312.591980,360.747955 
	C309.415558,353.837250 308.383759,347.233093 308.726532,340.060455 
	C308.939941,335.594482 308.040741,331.825897 305.268311,328.015564 
	C299.915527,320.658905 300.167603,312.098999 301.750488,303.101135 
z"/>
<path fill="#000000" opacity="1.000000" stroke="none" 
	d="
M407.628235,425.120422 
	C395.550262,428.672577 386.662201,422.505127 377.894958,416.383484 
	C375.808350,414.926514 374.862305,411.992615 376.649200,409.647949 
	C381.071014,403.846008 381.441681,396.690338 383.575714,390.143463 
	C386.618561,380.808350 389.068726,371.269440 392.875214,362.199280 
	C397.007629,352.352448 396.372375,342.063385 396.623688,331.722595 
	C396.989105,316.685333 392.125702,302.208252 392.602417,287.216827 
	C392.632660,286.265900 392.444397,285.103027 391.906464,284.369843 
	C383.952942,273.529053 386.499603,261.451508 388.005157,249.633728 
	C388.969757,242.062149 390.885956,234.632294 393.450226,227.381134 
	C396.335571,219.222214 402.025055,214.544601 410.341217,212.769623 
	C415.070648,211.760223 415.630310,210.597565 412.827545,206.474670 
	C410.334656,202.807602 408.790405,198.837158 407.957642,194.550888 
	C405.430054,181.541031 412.278931,172.583847 425.453827,171.600540 
	C431.322266,171.162567 437.077057,171.585144 442.668243,173.602570 
	C445.755432,174.716492 446.823944,176.390579 445.424683,179.705078 
	C443.392151,184.519791 443.569031,189.390625 446.153870,194.079300 
	C446.615448,194.916611 447.325806,196.373810 446.992218,196.778046 
	C442.563110,202.144760 445.160736,211.705566 435.874481,214.390335 
	C431.860504,215.550842 433.524811,218.830353 435.892120,221.004745 
	C441.994537,226.610016 446.004089,233.395798 447.199432,241.615341 
	C448.109558,247.873734 448.801941,254.219437 448.226501,260.533966 
	C446.980499,274.206329 449.645660,286.991638 456.118683,299.045380 
	C459.196991,304.777679 459.527710,311.488403 462.685028,317.249023 
	C464.137238,319.898651 463.713837,323.182220 463.067932,326.095612 
	C462.298035,329.568481 459.917847,331.513794 456.190338,331.347992 
	C452.592468,331.188019 450.982513,329.252869 450.579407,325.658203 
	C449.947784,320.025330 445.620300,316.727814 442.366455,312.507721 
	C440.679688,314.420502 441.090790,315.999207 441.633911,317.285248 
	C451.917145,341.633301 454.777039,367.690308 459.123260,393.392029 
	C459.856628,397.728851 461.677582,399.212830 465.859589,398.067993 
	C466.964691,397.765442 468.175140,397.775726 469.337860,397.770142 
	C472.122589,397.756744 474.976624,398.169556 475.852966,401.229431 
	C476.621979,403.914459 474.411530,405.594208 472.414398,406.737183 
	C464.717865,411.142029 456.736694,414.955139 447.662933,415.288757 
	C442.271423,415.486938 441.517426,413.831390 440.704498,408.565247 
	C439.186554,398.731964 436.675720,389.056183 434.963593,379.247559 
	C432.869965,367.253387 430.920380,355.268219 423.951141,344.863586 
	C423.166962,343.692810 422.992706,341.994965 420.689331,341.401276 
	C418.405487,362.778900 408.355377,381.670624 402.207275,401.796783 
	C401.818695,403.068878 401.394379,404.337219 400.879761,405.562408 
	C399.070526,409.869843 400.255676,412.811829 404.560089,414.452057 
	C405.488739,414.805939 406.500061,414.942108 407.430206,415.292816 
	C409.804230,416.187866 412.243652,417.127747 412.382629,420.209137 
	C412.516602,423.180145 410.114594,423.983673 407.628235,425.120422 
z"/>
<path fill="#000000" opacity="1.000000" stroke="none" 
	d="
M663.653809,398.292542 
	C662.547668,394.797272 663.870605,392.759796 666.689148,391.582428 
	C672.189941,389.284607 677.691345,386.980408 683.260925,384.858490 
	C686.433044,383.649994 689.377991,384.371033 690.806824,387.624512 
	C692.251343,390.913818 690.724243,393.529205 687.628662,394.949951 
	C682.512451,397.298035 677.304565,399.450623 672.102600,401.606506 
	C668.499146,403.099945 665.622437,402.258423 663.653809,398.292542 
z"/>
<path fill="#000000" opacity="1.000000" stroke="none" 
	d="
M628.905640,412.643250 
	C628.361023,408.854584 630.184082,407.038483 633.094971,405.842957 
	C637.999146,403.828674 642.880676,401.756714 647.740356,399.637299 
	C651.271301,398.097351 654.523560,398.280029 656.101990,402.097443 
	C657.619934,405.768616 655.846436,408.443176 652.188660,409.946655 
	C647.284912,411.962311 642.444336,414.131287 637.542114,416.150848 
	C633.802734,417.691376 630.707947,417.191864 628.905640,412.643250 
z"/>
<path fill="#000000" opacity="1.000000" stroke="none" 
	d="
M698.353699,62.866383 
	C694.367920,61.866394 693.141907,59.377296 693.866150,56.004539 
	C694.569946,52.727238 697.035828,51.738129 700.198792,51.635693 
	C705.654175,51.459019 711.100525,51.022522 716.553711,50.757164 
	C720.816650,50.549721 723.169678,52.701794 723.277527,56.906845 
	C723.388000,61.213017 720.172363,61.192272 717.053345,61.401733 
	C710.950195,61.811596 704.859802,62.409740 698.353699,62.866383 
z"/>
<path fill="#000000" opacity="1.000000" stroke="none" 
	d="
M950.024902,164.208603 
	C950.899414,166.569794 951.908386,168.547180 952.201172,170.625443 
	C952.582214,173.330383 951.310974,175.526596 948.620605,176.464981 
	C945.913940,177.409027 943.344849,176.532410 942.266968,174.042572 
	C939.755920,168.241898 936.375977,162.968430 933.277832,157.511093 
	C931.831177,154.963028 932.494568,152.172821 935.139160,150.559021 
	C937.896790,148.876266 940.672363,149.279068 942.532776,152.067795 
	C945.099121,155.914795 947.416748,159.927765 950.024902,164.208603 
z"/>
<path fill="#000000" opacity="1.000000" stroke="none" 
	d="
M674.054077,123.634109 
	C671.684021,120.290169 672.831787,116.866455 672.700623,113.622299 
	C672.505981,108.807678 672.653748,103.979362 672.648071,99.156883 
	C672.644592,96.217178 674.112549,94.333168 676.970825,93.975296 
	C679.867493,93.612610 682.014954,95.262543 682.410522,97.992760 
	C683.508972,105.574974 683.506226,113.252655 682.467163,120.820427 
	C681.926147,124.760559 678.967529,125.604683 674.054077,123.634109 
z"/>
<path fill="#000000" opacity="1.000000" stroke="none" 
	d="
M694.648621,449.929840 
	C690.078735,445.625580 690.506226,442.106110 695.542358,439.736572 
	C700.361694,437.469025 705.202820,435.247528 710.045410,433.029846 
	C713.512146,431.442230 716.698059,431.533203 718.496643,435.380646 
	C720.225525,439.079071 718.160156,441.788605 714.955566,442.955566 
	C708.327515,445.369232 702.654724,450.515320 694.648621,449.929840 
z"/>
<path fill="#000000" opacity="1.000000" stroke="none" 
	d="
M508.424927,470.346069 
	C510.850311,468.837799 512.866699,467.304840 515.116760,466.289917 
	C517.883240,465.041992 520.770813,465.027252 522.556091,468.024384 
	C524.185974,470.760529 523.242310,473.345856 520.848022,475.029175 
	C515.697021,478.650482 510.433594,482.127136 505.067383,485.420532 
	C502.326813,487.102478 499.490387,486.654907 497.671967,483.801422 
	C495.811523,480.882080 497.018188,478.254028 499.445557,476.371399 
	C502.190430,474.242432 505.216064,472.475464 508.424927,470.346069 
z"/>
<path fill="#000000" opacity="1.000000" stroke="none" 
	d="
M600.531189,518.364807 
	C602.758545,521.410400 602.105225,524.016113 600.217773,526.430237 
	C596.949707,530.610229 593.616211,534.739929 590.264221,538.853210 
	C587.817993,541.854919 584.612793,542.797302 581.567505,540.346375 
	C578.479919,537.861328 579.602234,534.654663 581.709045,531.938354 
	C584.961121,527.745605 588.327881,523.641602 591.662231,519.513000 
	C594.094971,516.500732 596.898071,515.563416 600.531189,518.364807 
z"/>
<path fill="#000000" opacity="1.000000" stroke="none" 
	d="
M479.194397,492.152344 
	C481.345978,490.549561 483.083618,488.900299 485.133575,487.876068 
	C487.541931,486.672699 490.075867,486.994720 491.889343,489.261475 
	C493.770813,491.613068 493.349091,494.242371 491.352356,496.030396 
	C486.528320,500.350159 481.524658,504.494049 476.353607,508.390594 
	C474.016296,510.151825 471.174683,509.932983 469.266754,507.353180 
	C467.291656,504.682495 467.740265,501.882996 470.085602,499.707031 
	C472.885254,497.109558 475.961945,494.810638 479.194397,492.152344 
z"/>
<path fill="#000000" opacity="1.000000" stroke="none" 
	d="
M637.101318,486.290802 
	C633.717529,488.346283 630.708313,488.749207 628.586121,485.283173 
	C626.467590,481.822906 628.439514,479.219727 631.121887,477.186371 
	C635.355835,473.976898 639.677124,470.876831 644.048767,467.856842 
	C646.807129,465.951233 649.737854,465.625427 652.023804,468.542023 
	C654.331482,471.486267 653.260315,474.421173 650.723999,476.452362 
	C646.453308,479.872375 641.867432,482.898712 637.101318,486.290802 
z"/>
<path fill="#000000" opacity="1.000000" stroke="none" 
	d="
M418.333130,554.883789 
	C414.804565,555.747803 412.219666,554.997620 411.175446,551.714233 
	C410.165344,548.538086 411.854767,546.309631 414.429810,544.640015 
	C418.881897,541.753357 423.302917,538.815979 427.812500,536.021912 
	C430.764832,534.192627 433.927277,533.649048 436.150269,536.964966 
	C438.414764,540.342896 436.498230,543.101624 433.736328,545.016602 
	C428.835358,548.414795 423.727295,551.514343 418.333130,554.883789 
z"/>
<path fill="#000000" opacity="1.000000" stroke="none" 
	d="
M862.906006,339.188232 
	C860.473572,338.041473 858.197693,337.309540 856.352783,335.979645 
	C853.809998,334.146637 852.877441,331.484558 854.657104,328.579773 
	C856.288452,325.916992 858.720825,325.421814 861.554077,326.665344 
	C866.857971,328.993317 872.190002,331.258301 877.470886,333.637115 
	C880.624695,335.057770 882.122192,337.490387 880.686523,340.863708 
	C879.271118,344.189514 876.618347,344.985443 873.312439,343.594818 
	C869.956543,342.183228 866.606995,340.756531 862.906006,339.188232 
z"/>
<path fill="#000000" opacity="1.000000" stroke="none" 
	d="
M936.809814,339.743591 
	C939.454102,336.574860 942.324585,334.159241 945.830139,337.312653 
	C949.301941,340.435760 947.662598,343.907166 945.199890,346.992279 
	C941.835205,351.207153 937.652039,354.376099 932.829102,356.766541 
	C929.450867,358.440918 926.101440,358.685791 924.232727,355.028198 
	C922.425598,351.491058 924.142090,348.679443 927.661377,346.970520 
	C931.119019,345.291565 934.323486,343.262085 936.809814,339.743591 
z"/>
<path fill="#000000" opacity="1.000000" stroke="none" 
	d="
M683.005615,142.197357 
	C682.983276,146.991226 683.067932,151.316498 682.897156,155.631653 
	C682.761475,159.062256 681.521057,162.118851 677.521667,162.147537 
	C673.300232,162.177826 672.595032,159.070908 672.635620,155.557907 
	C672.702820,149.741440 672.688965,143.923233 672.632568,138.106506 
	C672.601257,134.880173 672.877258,131.926620 677.062012,131.738510 
	C681.196289,131.552643 682.495544,134.248596 682.851562,137.740417 
	C682.986145,139.059799 682.956909,140.395905 683.005615,142.197357 
z"/>
<path fill="#000000" opacity="1.000000" stroke="none" 
	d="
M497.673279,609.621948 
	C493.605133,604.990051 493.946381,602.104126 498.597198,599.440979 
	C503.066254,596.881897 507.558899,594.361572 512.086609,591.908081 
	C515.322937,590.154419 518.713013,589.642944 520.712708,593.427490 
	C522.511902,596.832703 520.670715,599.540955 517.622009,601.317322 
	C512.884949,604.077209 508.074310,606.711121 503.287506,609.385193 
	C501.607727,610.323608 499.851654,610.577881 497.673279,609.621948 
z"/>
<path fill="#000000" opacity="1.000000" stroke="none" 
	d="
M545.487915,583.522095 
	C542.211365,585.855591 539.315613,588.120300 536.216187,590.059509 
	C533.190674,591.952393 530.059265,592.025146 527.906799,588.715759 
	C525.884460,585.606384 527.142700,582.962952 529.895935,580.958313 
	C534.202454,577.822693 538.609314,574.824341 542.898560,571.665955 
	C545.932922,569.431702 548.837219,569.260071 551.201660,572.334839 
	C553.488708,575.309082 552.110596,578.012085 549.723755,580.256653 
	C548.517944,581.390564 547.101013,582.299988 545.487915,583.522095 
z"/>
<path fill="#000000" opacity="1.000000" stroke="none" 
	d="
M155.846130,545.754456 
	C158.608719,544.492188 160.976120,543.256042 163.450211,542.294495 
	C166.397385,541.149109 168.680206,542.298645 170.162949,544.939087 
	C171.764297,547.790771 170.839508,550.454163 168.252548,551.807739 
	C162.519943,554.807129 156.606644,557.492859 150.632584,559.984070 
	C148.126617,561.028992 145.567047,560.231140 144.294876,557.547485 
	C143.002838,554.821838 143.475861,552.146484 146.133408,550.556274 
	C149.115585,548.771912 152.365005,547.434204 155.846130,545.754456 
z"/>
<path fill="#000000" opacity="1.000000" stroke="none" 
	d="
M681.249390,170.866928 
	C684.304138,179.117874 683.053528,187.239395 682.353760,195.266861 
	C682.092285,198.266541 679.445007,199.624588 676.387329,199.193039 
	C673.561035,198.794174 672.658142,196.783798 672.663330,194.157410 
	C672.676208,187.677185 672.532410,181.193756 672.692505,174.717575 
	C672.826660,169.287933 676.096130,167.732880 681.249390,170.866928 
z"/>
<path fill="#000000" opacity="1.000000" stroke="none" 
	d="
M111.519470,575.452515 
	C108.369469,570.565857 108.801697,568.306274 113.303802,566.048462 
	C118.046059,563.670166 122.833038,561.355591 127.724083,559.308533 
	C130.977005,557.947083 134.533798,557.642212 136.192459,561.658630 
	C137.797775,565.545898 135.513443,567.853943 132.046066,569.363403 
	C127.637138,571.282837 123.278069,573.317078 118.903839,575.315735 
	C116.580421,576.377380 114.255196,577.178101 111.519470,575.452515 
z"/>
<path fill="#000000" opacity="1.000000" stroke="none" 
	d="
M772.810791,404.653503 
	C775.529846,403.705353 777.847168,402.765503 780.240784,402.100128 
	C782.957825,401.344879 785.173279,402.053009 786.374146,404.872955 
	C787.573853,407.690063 786.607605,410.017517 784.132507,411.213593 
	C778.298767,414.032715 772.364807,416.681641 766.323853,419.018158 
	C763.519348,420.102905 760.987793,418.796051 759.839294,415.900116 
	C758.697449,413.020813 759.640747,410.505798 762.365662,409.126465 
	C765.622986,407.477753 769.075073,406.213715 772.810791,404.653503 
z"/>
<path fill="#000000" opacity="1.000000" stroke="none" 
	d="
M850.923950,114.274612 
	C846.592773,112.413078 842.590088,110.769547 838.655884,108.975906 
	C835.057495,107.335327 833.544495,104.419205 835.366089,100.844376 
	C837.141663,97.359741 840.235596,97.482903 843.526611,99.060371 
	C847.424988,100.928909 851.423340,102.590660 855.393860,104.306244 
	C860.851013,106.664215 862.564270,109.275345 861.083740,113.065529 
	C859.739807,116.505760 856.744080,116.921936 850.923950,114.274612 
z"/>
<path fill="#000000" opacity="1.000000" stroke="none" 
	d="
M384.008545,561.972534 
	C388.051636,559.924927 391.800293,558.109741 395.472839,556.151917 
	C398.983215,554.280518 402.319244,553.758362 404.392639,557.894531 
	C406.360077,561.819336 403.900757,564.120911 400.643311,565.796692 
	C396.644958,567.853638 392.659973,569.940186 388.613525,571.898865 
	C385.176636,573.562500 381.292450,575.056030 379.111694,570.555420 
	C377.035034,566.269653 379.905121,563.740417 384.008545,561.972534 
z"/>
<path fill="#000000" opacity="1.000000" stroke="none" 
	d="
M954.262207,193.308121 
	C954.262146,198.919571 954.299316,204.063599 954.247620,209.206711 
	C954.211670,212.782211 952.856567,215.568710 948.837219,215.511566 
	C944.816467,215.454407 943.617310,212.685532 943.651855,209.062851 
	C943.702332,203.753769 943.720276,198.442993 943.642151,193.134552 
	C943.588867,189.514847 944.155701,186.103821 948.505859,185.859650 
	C953.110657,185.601212 954.248169,188.929459 954.262207,193.308121 
z"/>
<path fill="#000000" opacity="1.000000" stroke="none" 
	d="
M544.169861,460.226868 
	C541.588867,461.808655 539.414795,463.391815 537.044556,464.585480 
	C534.323425,465.955811 531.408813,466.279083 529.562073,463.210999 
	C527.744385,460.191345 528.442627,457.327271 531.406372,455.406708 
	C536.156738,452.328400 540.959534,449.311249 545.898010,446.550720 
	C548.696533,444.986359 551.866577,444.720581 553.858704,447.890991 
	C556.008606,451.312469 554.240784,453.930084 551.312317,455.888306 
	C549.098938,457.368378 546.768494,458.673279 544.169861,460.226868 
z"/>
<path fill="#000000" opacity="1.000000" stroke="none" 
	d="
M895.802002,127.606880 
	C893.931152,131.621063 891.056335,131.994263 887.722778,130.625397 
	C882.802002,128.604767 877.937683,126.447220 873.034546,124.383018 
	C869.625488,122.947830 867.835022,120.468117 869.233337,116.897820 
	C870.705383,113.139061 873.962646,113.064590 877.205994,114.368858 
	C882.294922,116.415283 887.332703,118.597069 892.333313,120.851906 
	C894.995667,122.052376 896.484497,124.116966 895.802002,127.606880 
z"/>
<path fill="#000000" opacity="1.000000" stroke="none" 
	d="
M824.814880,91.238007 
	C827.922852,93.759682 828.175415,96.581619 826.255920,99.369217 
	C824.447449,101.995628 821.704102,101.713211 819.085266,100.642029 
	C814.184998,98.637680 809.325562,96.533607 804.440125,94.492691 
	C800.770508,92.959717 799.248962,90.314537 800.837402,86.571373 
	C802.369507,82.960876 805.393677,83.237846 808.406982,84.436539 
	C813.786804,86.576614 819.126770,88.816704 824.814880,91.238007 
z"/>
<path fill="#000000" opacity="1.000000" stroke="none" 
	d="
M469.231445,614.156616 
	C472.861206,612.398071 476.094177,610.656006 479.478729,609.289368 
	C482.569458,608.041443 486.012329,607.645935 487.742767,611.242310 
	C489.546692,614.991455 487.423676,617.573242 484.007904,619.201721 
	C479.807526,621.204407 475.582336,623.155029 471.381958,625.157776 
	C466.825653,627.330139 463.371674,626.792847 461.784515,623.622498 
	C460.199707,620.456848 461.914551,617.537476 466.631744,615.372253 
	C467.387299,615.025391 468.144379,614.681824 469.231445,614.156616 
z"/>
<path fill="#000000" opacity="1.000000" stroke="none" 
	d="
M179.396683,542.553284 
	C176.463501,538.516724 177.615082,535.572937 181.322647,533.619690 
	C186.031250,531.139038 190.884018,528.923889 195.727661,526.710449 
	C199.070465,525.182861 202.217697,525.771667 203.798096,529.177612 
	C205.435455,532.706299 203.477325,535.255493 200.224823,536.794739 
	C195.562103,539.001282 190.866547,541.138977 186.172272,543.278259 
	C183.945633,544.292969 181.721146,544.775574 179.396683,542.553284 
z"/>
<path fill="#000000" opacity="1.000000" stroke="none" 
	d="
M917.088318,132.808090 
	C920.295349,134.298874 923.164978,135.623856 926.023926,136.971466 
	C929.118835,138.430267 930.015930,141.020554 928.993530,144.029037 
	C927.861572,147.359863 924.900940,148.115845 922.041016,146.951492 
	C916.349182,144.634277 910.769165,141.995789 905.316345,139.157089 
	C902.343262,137.609329 901.920471,134.622437 903.340637,131.789673 
	C904.828735,128.821442 907.363586,128.000717 910.473022,129.571472 
	C912.552246,130.621826 914.654358,131.626907 917.088318,132.808090 
z"/>
<path fill="#000000" opacity="1.000000" stroke="none" 
	d="
M441.366882,526.619385 
	C445.715454,520.560486 451.657227,516.763062 457.096741,512.457886 
	C459.331207,510.689392 462.237518,510.980927 464.190063,513.554443 
	C466.076935,516.041382 465.847260,518.877197 463.720337,520.825684 
	C459.193939,524.972290 454.546692,529.073364 449.499939,532.539307 
	C445.206635,535.487732 441.605316,532.822021 441.366882,526.619385 
z"/>
<path fill="#000000" opacity="1.000000" stroke="none" 
	d="
M370.390503,580.386353 
	C364.626465,584.418518 358.332611,586.561829 352.216492,588.992004 
	C349.424164,590.101501 346.091492,590.014771 344.732147,586.313171 
	C343.459015,582.846252 345.160797,580.661682 348.300201,579.248596 
	C353.125732,577.076538 357.911804,574.816895 362.725891,572.619141 
	C365.089478,571.540039 367.536896,570.974426 369.698944,572.914429 
	C371.990997,574.971069 372.079407,577.477539 370.390503,580.386353 
z"/>
<path fill="#000000" opacity="1.000000" stroke="none" 
	d="
M832.203003,313.691437 
	C835.979187,315.134827 839.430176,316.360992 842.786133,317.807678 
	C845.995300,319.191101 848.216003,321.494354 846.781250,325.225128 
	C845.305603,329.062164 841.947693,328.972565 838.780701,327.862152 
	C833.922424,326.158630 829.181885,324.118469 824.394104,322.214600 
	C820.855957,320.807678 818.707520,318.445648 820.203979,314.505280 
	C821.694397,310.581085 824.909668,310.900574 828.155273,312.029388 
	C829.409241,312.465515 830.610779,313.052399 832.203003,313.691437 
z"/>
<path fill="#000000" opacity="1.000000" stroke="none" 
	d="
M739.399719,431.551605 
	C736.747620,432.606537 734.671875,434.073517 732.106018,434.294281 
	C728.996887,434.561829 726.964844,433.150848 726.042969,430.294006 
	C725.130920,427.467682 726.454224,425.289886 728.907349,424.135315 
	C734.147156,421.669098 739.479187,419.386292 744.847229,417.210571 
	C747.799805,416.013916 750.548218,416.634155 752.045044,419.659271 
	C753.674866,422.953186 752.245605,425.544037 749.261780,427.116760 
	C746.193481,428.734039 742.928101,429.977539 739.399719,431.551605 
z"/>
<path fill="#000000" opacity="1.000000" stroke="none" 
	d="
M269.824890,622.569946 
	C270.798462,626.309143 269.028595,628.333435 266.258575,629.657959 
	C261.324280,632.017334 256.356506,634.310913 251.355255,636.524658 
	C248.119797,637.956787 245.004196,637.925903 243.389023,634.204407 
	C241.910553,630.797913 243.671570,628.487671 246.741425,627.007996 
	C251.670197,624.632324 256.596466,622.250671 261.552155,619.932068 
	C264.864594,618.382324 267.679718,618.873718 269.824890,622.569946 
z"/>
<path fill="#000000" opacity="1.000000" stroke="none" 
	d="
M93.445854,587.541504 
	C89.918503,589.135742 86.773346,590.664795 83.542381,591.983582 
	C80.533577,593.211731 77.916412,592.622314 76.376480,589.530701 
	C74.825859,586.417664 75.911819,583.861023 78.818489,582.417236 
	C84.027412,579.830017 89.331406,577.408630 94.712875,575.203979 
	C97.844971,573.920837 100.736435,574.715088 102.216408,578.041443 
	C103.791946,581.582581 101.802170,583.720520 98.823082,585.199402 
	C97.187134,586.011536 95.470726,586.661560 93.445854,587.541504 
z"/>
<path fill="#000000" opacity="1.000000" stroke="none" 
	d="
M287.377655,607.271973 
	C290.438416,605.858521 293.143890,604.571716 295.893616,603.387573 
	C298.766296,602.150452 301.356415,602.838318 302.728851,605.565979 
	C304.158295,608.406921 303.497925,611.362610 300.547638,612.886536 
	C295.082733,615.709412 289.471100,618.261475 283.840698,620.745117 
	C280.905548,622.039917 278.501465,620.824829 277.230377,618.057617 
	C275.961609,615.295166 276.684174,612.762085 279.443542,611.218567 
	C281.908813,609.839661 284.503967,608.692871 287.377655,607.271973 
z"/>
<path fill="#000000" opacity="1.000000" stroke="none" 
	d="
M746.154236,57.670387 
	C749.471863,58.911869 752.458740,59.934677 755.351318,61.177025 
	C758.529114,62.541878 760.109558,64.973457 758.670227,68.364166 
	C757.269836,71.663193 754.500854,72.463646 751.229004,71.247902 
	C746.255920,69.400009 741.311096,67.474472 736.373962,65.531982 
	C732.982849,64.197800 731.203674,61.816666 732.464661,58.130718 
	C733.837463,54.118191 736.838989,54.190685 740.175232,55.494804 
	C742.028503,56.219242 743.912048,56.866455 746.154236,57.670387 
z"/>
<path fill="#000000" opacity="1.000000" stroke="none" 
	d="
M332.722961,587.276184 
	C335.657562,588.072693 337.043457,589.835999 337.126617,592.417847 
	C337.212250,595.075745 335.545685,596.692261 333.275848,597.724915 
	C328.433472,599.927979 323.583923,602.115967 318.718353,604.267212 
	C315.252472,605.799561 312.255981,604.990173 310.873016,601.485962 
	C309.604797,598.272522 310.892639,595.716492 314.400299,594.434143 
	C320.456818,592.219727 325.753357,588.110840 332.722961,587.276184 
z"/>
<path fill="#000000" opacity="1.000000" stroke="none" 
	d="
M447.864990,635.976074 
	C443.637482,637.981628 439.788208,639.911560 435.846649,641.629944 
	C432.543915,643.069824 429.442444,642.625000 427.904144,639.067139 
	C426.335297,635.438538 428.327271,633.132080 431.616638,631.636353 
	C435.984314,629.650146 440.377411,627.704712 444.644531,625.517273 
	C448.157532,623.716492 451.546967,623.100647 453.599792,627.095581 
	C455.681702,631.147034 453.109070,633.587891 449.567230,635.213745 
	C449.116547,635.420715 448.658081,635.610779 447.864990,635.976074 
z"/>
<path fill="#000000" opacity="1.000000" stroke="none" 
	d="
M621.432129,420.020782 
	C621.313416,421.037201 621.351562,421.776184 621.042175,422.315979 
	C619.638794,424.764038 602.487183,432.388611 599.738220,431.757690 
	C597.437317,431.229553 596.007629,429.727081 595.553284,427.362762 
	C595.096130,424.983704 595.775818,422.828827 597.916199,421.846954 
	C603.623779,419.228577 609.351929,416.552338 615.302917,414.604950 
	C618.994934,413.396759 621.229187,415.713654 621.432129,420.020782 
z"/>
<path fill="#000000" opacity="1.000000" stroke="none" 
	d="
M602.653564,507.127289 
	C605.835999,499.648529 612.133484,495.357239 617.568848,490.367065 
	C619.394714,488.690796 622.096130,489.497253 623.871094,491.425873 
	C625.827820,493.551971 626.020020,496.232605 624.172058,498.255127 
	C619.912964,502.916473 615.550171,507.547302 610.752502,511.630066 
	C607.441406,514.447876 603.959106,512.427368 602.653564,507.127289 
z"/>
<path fill="#000000" opacity="1.000000" stroke="none" 
	d="
M951.225159,224.640503 
	C953.537720,226.210724 954.208496,228.203552 954.216553,230.474274 
	C954.235352,235.804459 954.254150,241.135010 954.209229,246.464890 
	C954.179016,250.052551 952.806641,252.913589 948.815674,252.851456 
	C944.864502,252.789932 943.566040,250.057953 943.637878,246.354218 
	C943.744385,240.859253 943.559753,235.357666 943.714539,229.864960 
	C943.849609,225.072342 945.748047,223.744705 951.225159,224.640503 
z"/>
<path fill="#000000" opacity="1.000000" stroke="none" 
	d="
M783.333496,84.954773 
	C778.701538,82.957275 774.386230,81.209641 770.164917,79.258812 
	C766.895630,77.747955 765.138489,75.191139 766.763794,71.600876 
	C768.333496,68.133125 771.298889,68.145142 774.394775,69.408760 
	C778.857117,71.230133 783.293640,73.114838 787.746399,74.959900 
	C791.247864,76.410805 794.278259,78.429909 792.482239,82.756889 
	C790.750183,86.929588 787.302368,86.836044 783.333496,84.954773 
z"/>
<path fill="#000000" opacity="1.000000" stroke="none" 
	d="
M577.271912,546.839966 
	C579.984558,550.267334 578.814087,552.994507 576.435730,555.505310 
	C572.788879,559.355103 569.143372,563.208862 565.397217,566.960938 
	C563.184021,569.177673 560.576416,570.080078 557.902588,567.740479 
	C555.208740,565.383301 554.930359,562.557861 557.357056,559.881897 
	C561.364075,555.463257 565.425720,551.080505 569.695496,546.919800 
	C571.800964,544.868164 574.484375,544.923462 577.271912,546.839966 
z"/>
<path fill="#000000" opacity="1.000000" stroke="none" 
	d="
M682.438354,458.415100 
	C677.249023,461.144501 672.389282,463.693970 667.483459,466.151581 
	C664.291260,467.750763 661.160461,467.837402 659.350037,464.248383 
	C657.562134,460.704041 659.336182,458.219177 662.578796,456.561279 
	C667.021667,454.289673 671.453552,451.996033 675.911377,449.754120 
	C678.806030,448.298340 681.745056,447.801727 684.004883,450.733246 
	C686.153625,453.520630 685.096619,456.030212 682.438354,458.415100 
z"/>
<path fill="#000000" opacity="1.000000" stroke="none" 
	d="
M899.370178,343.455383 
	C903.385254,344.783142 907.023682,345.966553 910.652344,347.179260 
	C913.880920,348.258240 916.041260,350.330048 915.008667,353.889130 
	C913.942810,357.563202 911.076050,358.632050 907.483337,357.491974 
	C902.726746,355.982513 897.993774,354.398468 893.255920,352.830383 
	C889.308533,351.523865 887.343628,348.787201 888.721375,344.782227 
	C890.102661,340.766937 893.446411,341.310272 896.665161,342.405670 
	C897.452881,342.673706 898.215271,343.015747 899.370178,343.455383 
z"/>
<path fill="#000000" opacity="1.000000" stroke="none" 
	d="
M680.622559,59.675144 
	C686.450684,60.319756 688.849060,64.356430 686.388184,69.410507 
	C684.474487,73.340698 682.974365,77.183907 682.920593,81.669807 
	C682.879578,85.098984 680.617065,87.300385 677.074097,87.017998 
	C673.635925,86.743950 672.772095,84.226837 672.579224,80.997009 
	C672.086914,72.753693 674.438904,65.674011 680.622559,59.675144 
z"/>
<path fill="#000000" opacity="1.000000" stroke="none" 
	d="
M954.191528,321.531494 
	C953.655884,325.439514 952.163696,328.275543 948.229004,327.936829 
	C944.158020,327.586426 943.588257,324.386719 943.641907,320.943756 
	C943.724548,315.635223 943.648560,310.324432 943.693298,305.015076 
	C943.720642,301.763733 945.093872,299.467865 948.625488,299.419922 
	C952.012146,299.373932 953.953064,301.442139 954.091187,304.661407 
	C954.325745,310.126953 954.191223,315.608337 954.191528,321.531494 
z"/>
<path fill="#000000" opacity="1.000000" stroke="none" 
	d="
M566.168457,447.201599 
	C563.017700,446.455475 561.493164,444.666107 561.471741,441.826782 
	C561.449585,438.894684 563.434448,437.462494 565.864563,436.412842 
	C570.431458,434.440308 574.961609,432.382233 579.537354,430.430786 
	C582.796753,429.040802 585.954346,429.144775 587.676270,432.645660 
	C589.509949,436.373901 587.098389,438.778351 584.007996,440.100983 
	C578.236328,442.571136 572.752197,445.774994 566.168457,447.201599 
z"/>
<path fill="#000000" opacity="1.000000" stroke="none" 
	d="
M943.656250,280.856934 
	C943.665894,276.070221 943.646118,271.763855 943.695496,267.458313 
	C943.732666,264.220428 945.127563,261.937256 948.598938,261.786377 
	C952.354187,261.623077 954.019104,264.034576 954.142090,267.404724 
	C954.335205,272.697784 954.256592,278.002045 954.233154,283.301239 
	C954.217529,286.830078 953.671204,290.230682 949.157776,290.354156 
	C944.411438,290.483978 943.477905,287.254364 943.657227,283.324860 
	C943.687439,282.663849 943.658325,282.000122 943.656250,280.856934 
z"/>
<path fill="#000000" opacity="1.000000" stroke="none" 
	d="
M413.466431,640.925720 
	C417.278137,640.244629 419.906769,641.266846 420.784149,644.826660 
	C421.616516,648.203918 419.550995,650.117737 416.738800,651.366638 
	C412.029572,653.458008 407.293030,655.487610 402.573914,657.556763 
	C399.249390,659.014587 396.569336,658.210815 395.154877,654.896301 
	C393.827759,651.786377 395.166840,649.333313 398.122375,647.920715 
	C403.072144,645.555054 408.084717,643.320801 413.466431,640.925720 
z"/>
</svg>