<svg width="490" height="499" viewBox="0 0 490 499" fill="none" xmlns="http://www.w3.org/2000/svg">
<path d="M433.336 222L244.999 435.181" stroke="url(#paint0_linear_799_9)" stroke-width="112.521" stroke-linecap="round"/>
<path d="M347.66 103.145C347.66 157.006 280.395 207.371 249.479 235.95C246.69 238.528 242.371 238.496 239.606 235.892C209.253 207.303 141.371 156.969 141.371 103.145C141.371 46.1795 187.55 0 244.515 0C301.48 0 347.66 46.1795 347.66 103.145Z" fill="url(#paint1_linear_799_9)"/>
<path d="M57 221.978L244.535 434.457" stroke="url(#paint2_linear_799_9)" stroke-width="112.521" stroke-linecap="round"/>
<path d="M57 222L245 435" stroke="url(#paint3_linear_799_9)" stroke-width="112.521" stroke-linecap="round"/>
<path d="M147.501 239.5C99.1011 249.5 89.3336 314.833 91.5002 346C123.334 383.333 191.001 461.5 205.001 475.5C219.001 489.5 237.001 491 242.001 491.5L245.001 350L147.501 239.5Z" fill="url(#paint4_linear_799_9)"/>
<path d="M342.5 240C390.655 249.96 399.879 315.034 397.724 346.077C366.051 383.263 297.796 460.248 284.797 475.063C269.5 492.5 246.975 491.002 242 491.5L245 350.062L342.5 240Z" fill="url(#paint5_linear_799_9)"/>
<path d="M245 350C245 350 305.914 430.277 341.943 408.67L348.58 403.169C330.779 424.779 291.429 469.071 281.5 479C269 491.5 253.5 491.5 241.999 491.5L245 350Z" fill="url(#paint6_linear_799_9)"/>
<defs>
<linearGradient id="paint0_linear_799_9" x1="209.736" y1="462.029" x2="512.371" y2="230.127" gradientUnits="userSpaceOnUse">
<stop stop-color="#0F4A8A"/>
<stop offset="1" stop-color="#0766B7"/>
</linearGradient>
<linearGradient id="paint1_linear_799_9" x1="244.515" y1="0" x2="244.515" y2="240.671" gradientUnits="userSpaceOnUse">
<stop stop-color="#2EA2E5"/>
<stop offset="1" stop-color="#68DCE3"/>
</linearGradient>
<linearGradient id="paint2_linear_799_9" x1="174.65" y1="482.837" x2="588.099" y2="170.381" gradientUnits="userSpaceOnUse">
<stop stop-color="#6BB7E1"/>
<stop offset="1" stop-color="#9DEFCD"/>
</linearGradient>
<linearGradient id="paint3_linear_799_9" x1="-0.52487" y1="162.969" x2="301.63" y2="426.043" gradientUnits="userSpaceOnUse">
<stop stop-color="#2A98E1"/>
<stop offset="1" stop-color="#3CCBF4"/>
</linearGradient>
<linearGradient id="paint4_linear_799_9" x1="168.112" y1="239.5" x2="168.112" y2="491.5" gradientUnits="userSpaceOnUse">
<stop stop-color="#3CCAF4"/>
<stop offset="1" stop-color="#9DEFCD"/>
</linearGradient>
<linearGradient id="paint5_linear_799_9" x1="321.5" y1="240" x2="321.5" y2="491" gradientUnits="userSpaceOnUse">
<stop stop-color="#3CCAF4"/>
<stop offset="1" stop-color="#568C76"/>
</linearGradient>
<linearGradient id="paint6_linear_799_9" x1="242.5" y1="346" x2="268.233" y2="491.803" gradientUnits="userSpaceOnUse">
<stop offset="0.0246985" stop-color="#66DBE3"/>
<stop offset="1" stop-color="#9CEFCE"/>
</linearGradient>
</defs>
</svg>
