<svg class="b-logo__image" fill="none" viewBox="0 0 80 30" xmlns="http://www.w3.org/2000/svg">
<path d="M22.6484 22.3097C22.9017 22.3097 23.1389 22.1079 23.1831 21.8558C23.2233 21.6307 23.0946 21.4368 22.8775 21.4019C22.6685 21.3708 22.4674 21.3204 22.2704 21.2467C21.3095 20.8471 21.0603 19.9781 21.2412 18.9229L23.4123 6.3069C23.5087 5.74438 23.7138 5.24781 24.1641 4.81331C24.6144 4.37881 25.1772 4.2857 25.728 4.1732C25.917 4.14216 26.0617 3.99474 26.0859 3.81241C26.1221 3.6068 25.9854 3.44386 25.7803 3.44386L20.7306 3.4361C20.4693 3.4361 20.2723 3.4749 20.1516 3.55637C20.031 3.63783 19.9064 3.78525 19.7938 4.0025L12.7982 16.1995C12.754 16.2771 12.6655 16.3275 12.5731 16.3275C12.4484 16.3275 12.3439 16.2422 12.3198 16.1258L9.90346 4.27406C9.77883 3.7387 9.69842 3.44386 9.11545 3.44386H4.02151C3.81245 3.44386 3.61544 3.61068 3.57926 3.82017C3.54709 4.00638 3.65565 4.16156 3.83255 4.1926C4.36727 4.2857 5.00251 4.47968 5.2759 4.96461C5.57743 5.50385 5.54929 6.175 5.42466 6.97804C5.42466 6.98192 3.45462 18.4263 3.45462 18.4263C3.26968 19.4233 2.43744 21.4678 0.358859 21.6463C0.177938 21.6695 0.0372214 21.8014 0.00505764 21.976C-0.0271061 22.1622 0.0975285 22.3097 0.28247 22.3097H6.36545C6.57451 22.3097 6.77151 22.1428 6.8077 21.9333C6.84388 21.7394 6.72327 21.5726 6.53029 21.557C6.1001 21.5221 5.59352 21.4096 5.21961 21.0876C4.71705 20.657 4.51201 19.7802 4.61654 18.9772C4.66479 18.597 4.70499 18.1858 4.77736 17.7552L6.65492 6.83451C6.671 6.7414 6.75543 6.67157 6.85594 6.66769C6.95244 6.66769 7.03687 6.73364 7.05697 6.82287C7.40273 8.45224 10.3136 22.1739 10.3497 22.3368C10.3819 22.4804 10.4905 22.5463 10.6392 22.5463C10.804 22.5463 10.9407 22.461 11.0252 22.3097C11.1056 22.1661 18.9616 8.07205 19.6893 6.7608C19.7215 6.7026 19.7858 6.66381 19.8582 6.66381C19.9627 6.66381 20.0511 6.74528 20.0511 6.85002C20.0511 6.86166 20.0511 6.86942 20.0471 6.88106L17.9766 18.919C17.8278 19.7841 17.2046 20.7346 16.3563 21.1691C16.0106 21.3475 15.3874 21.4523 14.9934 21.5027C14.7803 21.5376 14.6155 21.6967 14.5753 21.8984C14.535 22.1234 14.6838 22.3058 14.909 22.3058L22.6484 22.3097ZM69.4949 7.24185C69.4909 7.99834 68.8516 8.60742 68.0676 8.59966C67.2837 8.59578 66.6524 7.97895 66.6605 7.22245C66.6645 6.46984 67.2997 5.86464 68.0797 5.86464C68.8637 5.86464 69.4989 6.48147 69.4949 7.24185ZM34.5369 3.60292C34.5168 3.50205 34.4243 3.4361 34.3198 3.43998H31.9678C31.8432 3.43998 31.7387 3.33912 31.7387 3.21885L31.7346 0.898938C31.7387 0.798072 31.6663 0.708845 31.5658 0.689447C31.4251 0.666171 31.2884 0.73988 31.2321 0.867902L30.1305 3.26541C30.0822 3.37403 29.9696 3.44386 29.849 3.44386H27.4408C27.3 3.44774 27.1794 3.54085 27.1432 3.67275C27.1111 3.76974 27.1513 3.8706 27.2438 3.92103L28.8962 4.82883C29.0449 4.9103 29.0972 5.09651 29.0128 5.24005C29.0087 5.24393 29.0087 5.24781 29.0047 5.25169L27.5734 7.45134C27.493 7.57548 27.5292 7.69574 27.5976 7.75782C27.686 7.8354 27.8227 7.83153 27.9353 7.75006L30.1063 6.12069C30.235 6.01982 30.424 6.03922 30.5285 6.15948L31.9276 7.73842C32 7.81213 32.1005 7.83928 32.2251 7.78109C32.3297 7.73454 32.4302 7.61428 32.402 7.47462L31.9517 5.23617C31.9236 5.10039 31.996 4.96461 32.1286 4.90642L34.36 3.92879C34.4846 3.86672 34.557 3.73482 34.5369 3.60292Z" fill="currentColor"></path>
<path d="M34.6352 10.8207C34.7032 10.5819 34.6912 10.3933 34.5951 10.2585C34.4991 10.1199 34.339 10.0544 34.1229 10.0544H33.6426C33.2584 10.0544 33.0503 10.3856 32.7861 10.6435C32.3699 10.3009 32.0097 10.1006 31.2973 10.1006C29.9366 10.1006 27.7353 11.4521 25.8183 13.8971C24.7697 15.2601 22.1963 19.9345 24.1414 21.6979C25.7422 23.1457 28.2957 20.77 28.916 19.9768C29.2362 19.5687 29.5884 19.0758 29.9086 18.6831C29.9446 18.6408 30.0046 18.6331 30.0486 18.6677C30.0806 18.6947 30.0967 18.737 30.0806 18.7755C29.9686 19.0989 29.8525 19.5879 29.7605 20.0038C29.5964 20.7161 29.4443 22.1561 30.8411 22.1561C31.8736 22.1561 32.7181 21.336 33.3385 20.589C33.9708 19.8267 34.5151 18.9411 34.5151 18.6947C34.5111 18.4713 34.319 18.2981 34.0909 18.2981C33.9508 18.2981 33.8187 18.3674 33.7467 18.4867C33.7467 18.4906 33.4785 18.8872 33.1584 19.3377C32.9222 19.6688 32.506 20.2079 32.2739 20.2079C32.1458 20.2079 32.0617 20.1231 32.0377 19.9499C31.9897 19.6187 32.1098 19.0989 32.2699 18.5676L34.6352 10.8207ZM31.1652 14.8597C29.9366 17.3586 27.9675 19.9345 26.6908 19.9345C25.25 19.9345 26.6788 16.4383 27.8514 14.4939C28.924 12.7112 30.4569 11.0594 31.7256 11.0594C32.9582 11.0594 32.3379 12.4763 31.1652 14.8597ZM54.9064 10.8207C54.9744 10.5819 54.9624 10.3933 54.8664 10.2585C54.7703 10.1199 54.6142 10.0544 54.3941 10.0544H53.9139C53.5296 10.0544 53.3215 10.3856 53.0574 10.6435C52.6411 10.3009 52.2809 10.1006 51.5686 10.1006C50.2078 10.1006 48.0066 11.4521 46.0895 13.8971C45.0409 15.2601 42.4675 19.9345 44.4126 21.6979C46.0135 23.1457 48.5669 20.77 49.1872 19.9768C49.5074 19.5687 49.8596 19.0758 50.1798 18.6831C50.2158 18.6408 50.2798 18.6369 50.3199 18.6677C50.3519 18.6947 50.3639 18.737 50.3519 18.7755C50.2358 19.0989 50.1238 19.5879 50.0317 20.0038C49.8676 20.7161 49.7155 22.1561 51.1123 22.1561C52.1449 22.1561 52.9893 21.336 53.6097 20.589C54.242 19.8267 54.7863 18.9411 54.7863 18.6947C54.7823 18.4713 54.5902 18.2942 54.3621 18.2981C54.222 18.2981 54.0899 18.3674 54.0179 18.4867C54.0179 18.4906 53.7498 18.8872 53.4296 19.3377C53.1935 19.6688 52.7772 20.2079 52.5451 20.2079C52.417 20.2079 52.333 20.1231 52.309 19.9499C52.2609 19.6187 52.381 19.0989 52.5411 18.5676L54.9064 10.8207ZM51.4365 14.8597C50.2078 17.3586 48.2387 19.9383 46.958 19.9383C45.5212 19.9383 46.946 16.4422 48.1186 14.4978C49.1912 12.715 50.7281 11.0632 51.9928 11.0632C53.2295 11.0594 52.6051 12.4763 51.4365 14.8597Z" fill="currentColor"></path>
<path d="M47.0511 9.88583C46.9187 9.46617 46.6579 8.8833 45.9598 8.8833C45.7752 8.8833 45.711 8.98433 45.6829 9.13588C45.5305 9.97909 45.1974 10.3249 44.2867 10.3793C43.7531 10.4104 42.9386 10.3172 42.4291 10.2744C40.9646 10.154 39.7449 10.2356 38.762 10.6863C37.2694 11.3702 36.1701 12.3999 35.4921 13.8921C34.3807 16.3401 35.8812 18.3102 37.7308 18.4035C37.8071 18.4074 37.783 18.4928 37.7228 18.5239C37.2895 18.7454 36.3266 19.3205 35.9214 19.9073C35.2032 20.9525 35.1069 21.8346 35.9896 22.8915C37.1571 24.2904 40.7038 24.2283 41.6106 25.3279C42.3568 26.2333 40.9205 28.8329 37.458 28.8329C34.5251 28.8329 32.3706 27.6866 33.2693 25.1492C33.4499 24.644 33.5863 24.4381 33.8952 24.17C34.1119 23.9835 33.9875 23.5288 33.5823 23.5288C31.9493 23.5288 30.6012 24.916 30.7136 26.2994C30.8259 27.6827 32.5351 29.9637 37.3617 29.9637C42.1883 29.9637 45.0209 26.8628 44.1663 24.2283C43.5324 22.2776 40.2785 22.1377 38.1481 21.1274C37.3457 20.7466 37.47 19.9267 38.12 19.3555C38.3968 19.1146 38.8542 18.8814 39.2314 18.7299C41.4661 17.9333 43.0229 16.9502 44.07 14.8324C44.5234 13.9193 44.5314 12.4893 43.6889 11.4052C43.6608 11.3663 43.7009 11.2925 43.7531 11.3003C43.9697 11.3313 45.1453 11.4596 45.6227 11.4596C46.694 11.4557 47.2637 10.5542 47.0511 9.88583ZM41.6186 14.3584C40.8162 16.3945 39.6647 17.5292 38.6576 17.5292C37.7429 17.5292 37.3055 15.9982 38.0398 14.1874C38.79 12.3455 39.9736 11.0865 41.1051 11.1837C41.7711 11.242 42.401 12.365 41.6186 14.3584ZM54.963 20.1093C54.963 20.9564 55.8738 22.4486 58.0845 22.4486C60.4677 22.4486 62.0966 20.7699 61.7877 18.7804C61.4788 16.7676 59.6813 14.6381 58.8789 13.3014C58.5699 12.7846 58.1246 11.378 59.3884 11.1604C60.0183 11.0516 60.3634 11.343 60.9491 12.501C61.4266 13.4491 62.6262 13.146 62.6262 12.0308C62.6262 11.3663 62.0164 10.2511 60.1908 10.2511C59.0193 10.2511 57.2861 10.7329 56.8166 12.4388C56.4796 13.6628 56.8929 14.7314 57.4867 15.8661C58.1045 17.0551 59.6933 19.0174 59.7856 19.8762C59.8699 20.6533 59.4526 21.31 58.7866 21.4227C57.0935 21.7103 57.2459 19.8024 56.5077 19.27C55.946 18.8736 54.963 19.1495 54.963 20.1093Z" fill="currentColor"></path>
<path d="M65.4063 19.9017C65.3544 20.0937 65.3744 20.3779 65.6298 20.4586C65.8174 20.5162 66.0369 20.3703 66.1607 20.2589C66.7793 19.725 67.2063 18.811 67.346 18.5268C67.4099 18.3924 67.5536 18.3079 67.7052 18.3079C67.9447 18.3117 68.1363 18.4961 68.1323 18.7265C68.1323 18.7687 68.1243 18.811 68.1123 18.8532C67.7851 19.8211 66.4321 22.1561 64.668 22.1561C63.9216 22.1561 62.6005 21.5724 63.2152 19.5714C63.5465 18.4922 64.66 14.786 65.095 13.3958C65.1709 13.1538 65.6578 11.9786 65.0671 11.9786C64.6001 11.9786 63.9535 12.7928 63.4108 13.7299C63.3389 13.8451 63.2152 13.9219 63.0755 13.9258C62.7362 13.9258 62.5287 13.6031 62.6724 13.3458C63.0915 12.5969 63.6542 11.8288 64.181 11.3218C64.8037 10.7227 65.566 10.0544 66.5238 10.0544C68.0046 10.0544 67.9207 11.8365 67.6254 12.7813C67.1704 14.2791 65.4063 19.9017 65.4063 19.9017ZM77.0286 13.3958C76.5935 14.786 75.4201 18.4922 75.0849 19.5714C74.4702 21.5724 75.7873 22.1561 76.5337 22.1561C78.2977 22.1561 79.6547 19.8211 79.978 18.8532C80.0538 18.6343 79.9261 18.4 79.7026 18.3271C79.6587 18.3155 79.6148 18.3079 79.5709 18.3079C79.4193 18.3079 79.2756 18.3924 79.2117 18.5268C79.072 18.811 78.645 19.725 78.0263 20.2589C77.8986 20.3664 77.6831 20.5162 77.4955 20.4586C77.2401 20.3779 77.2161 20.0937 77.272 19.9017C77.272 19.9017 78.9124 14.8859 79.3793 13.3881C79.6547 12.5086 80.2215 10.0928 77.28 10.0928C75.5718 10.0928 73.4565 12.6852 73.0254 13.5532C73.0055 13.5955 72.9576 13.6147 72.9097 13.6031C72.8578 13.5878 72.8259 13.534 72.8378 13.4802C73.4006 11.5984 73.8835 10.1005 72.3868 10.1005C70.9381 10.1005 69.182 12.7697 68.8547 13.3612C68.7469 13.5609 68.8307 13.8067 69.0343 13.9066C69.0942 13.9373 69.158 13.9526 69.2259 13.9526C69.3735 13.9526 69.5092 13.8758 69.5771 13.7529C70.0161 12.9157 70.9421 11.7904 71.2893 12.0708C71.4968 12.2436 71.3332 13.1308 71.2374 13.5187C70.9181 14.7745 69.4534 20.3395 69.1141 21.6069C69.0742 21.7567 69.17 21.9103 69.3256 21.9449C69.3456 21.9487 69.3695 21.9526 69.3935 21.9526H70.7984C71.0738 21.9526 71.3132 21.7798 71.3891 21.5263C71.6205 20.7582 71.884 19.8441 72.0755 19.2296C72.4507 18.0121 72.6742 17.052 73.0893 15.992C73.4285 15.1279 73.7279 14.5095 74.2547 13.7145C74.6778 13.077 75.8432 11.8211 76.6574 11.8211C77.5873 11.8211 77.2082 12.8197 77.0286 13.3958Z" fill="currentColor"></path>
</svg>