<svg xmlns="http://www.w3.org/2000/svg" viewBox="0 0 102.94 40"><defs><style>.cls-1{fill:#9ca3af}</style></defs><g id="Layer_2" data-name="Layer 2"><g id="Layer_1-2" data-name="Layer 1"><g id="Group_14" data-name="Group 14"><g id="Group_1" data-name="Group 1"><path id="Path_2" d="M.36 0A.36.36 0 0 0 0 .38V19a.36.36 0 0 0 .36.36H12.2a1 1 0 0 0 .69-.28l1.95-1.92a1 1 0 0 0 .3-.7V11.9a.83.83 0 0 0-.31-.64l-1.77-1.39A.27.27 0 0 1 13 9.5a.23.23 0 0 1 .07-.07l1.77-1.38a.84.84 0 0 0 .31-.64V2.87a1 1 0 0 0-.28-.66l-2-1.93a.9.9 0 0 0-.64-.28Zm9.12 14.65a.36.36 0 0 1-.36.36H6a.36.36 0 0 1-.36-.36v-1.89A.36.36 0 0 1 6 12.4h3.12a.36.36 0 0 1 .36.36Zm0-8.09a.36.36 0 0 1-.36.36H6a.36.36 0 0 1-.36-.36V4.69A.36.36 0 0 1 6 4.34h3.12a.36.36 0 0 1 .36.35Z" class="cls-1" data-name="Path 2"/></g><g id="Group_2" data-name="Group 2"><path id="Path_3" d="m78.05 19 4.32-4.26a1.11 1.11 0 0 0 .34-.81V5a.36.36 0 0 0-.36-.36h-4.93a.36.36 0 0 0-.36.36v8.48a.36.36 0 0 1-.36.36h-1.92a.36.36 0 0 1-.36-.36V5a.36.36 0 0 0-.36-.36h-4.93a.36.36 0 0 0-.36.36v9a1.15 1.15 0 0 0 .34.82L73.43 19a1 1 0 0 0 .68.28h3.26a1 1 0 0 0 .68-.28Z" class="cls-1" data-name="Path 3"/></g><g id="Group_3" data-name="Group 3"><path id="Path_4" d="M18.8 25.66 17 27.41a1.27 1.27 0 0 0-.38.9V37a1.27 1.27 0 0 0 .38.9l1.79 1.75a1.25 1.25 0 0 0 .88.36h7.84a1.29 1.29 0 0 0 .89-.36l1.78-1.75a1.27 1.27 0 0 0 .38-.9v-8.69a1.29 1.29 0 0 0-.38-.9l-1.78-1.75a1.29 1.29 0 0 0-.89-.36h-7.83a1.25 1.25 0 0 0-.88.36Zm6.12 9.65a.36.36 0 0 1-.36.36h-1.92a.36.36 0 0 1-.36-.36V30a.36.36 0 0 1 .36-.36h1.92a.36.36 0 0 1 .36.36Z" class="cls-1" data-name="Path 4"/></g><g id="Group_4" data-name="Group 4"><path id="Path_5" d="m44.85 5-1.78 1.73a1.26 1.26 0 0 0-.38.9v8.67a1.27 1.27 0 0 0 .38.9l1.78 1.8a1.29 1.29 0 0 0 .89.36h7.84a1.25 1.25 0 0 0 .88-.36l1.79-1.75a1.27 1.27 0 0 0 .38-.9V7.63a1.26 1.26 0 0 0-.38-.9L54.46 5a1.25 1.25 0 0 0-.88-.36h-7.84a1.29 1.29 0 0 0-.89.36ZM51 14.62a.36.36 0 0 1-.36.36H48.7a.36.36 0 0 1-.36-.36V9.31A.36.36 0 0 1 48.7 9h1.92a.36.36 0 0 1 .36.36Z" class="cls-1" data-name="Path 5"/></g><g id="Group_5" data-name="Group 5"><path id="Path_6" d="M9.48 27.25a.37.37 0 0 1-.36.36H6a.37.37 0 0 1-.36-.36v-6.18a.36.36 0 0 0-.36-.36H.36a.36.36 0 0 0-.36.36v18.57a.36.36 0 0 0 .36.36h4.93a.36.36 0 0 0 .36-.36v-6.2a.36.36 0 0 1 .35-.36h3.12a.36.36 0 0 1 .36.36v6.2a.36.36 0 0 0 .36.36h4.93a.36.36 0 0 0 .36-.36V21.07a.36.36 0 0 0-.36-.36H9.84a.36.36 0 0 0-.36.36Z" class="cls-1" data-name="Path 6"/></g><g id="Group_6" data-name="Group 6"><path id="Path_7" d="M63.78 9.31a.36.36 0 0 1 .36-.31h2.78a.36.36 0 0 0 .35-.36V5a.36.36 0 0 0-.35-.36h-2.3a.74.74 0 0 0-.59.28l-.62.73a.15.15 0 0 1-.21 0l-.64-.75a.74.74 0 0 0-.56-.29h-3.52a.36.36 0 0 0-.35.36V19a.36.36 0 0 0 .35.36h4.94a.36.36 0 0 0 .36-.36Z" class="cls-1" data-name="Path 7"/></g><g id="Group_7" data-name="Group 7"><path id="Path_8" d="M37.69 30a.36.36 0 0 1 .36-.36h2.78a.36.36 0 0 0 .36-.36v-3.62a.36.36 0 0 0-.36-.36h-2.3a.76.76 0 0 0-.58.27l-.63.74a.14.14 0 0 1-.2 0l-.64-.76a.69.69 0 0 0-.54-.25H32.4a.36.36 0 0 0-.36.36v14a.36.36 0 0 0 .36.36h4.93a.36.36 0 0 0 .36-.36Z" class="cls-1" data-name="Path 8"/></g><g id="Group_8" data-name="Group 8"><path id="Path_9" d="M24.92 13.46a.36.36 0 0 1-.36.35h-1.92a.36.36 0 0 1-.36-.35V5a.36.36 0 0 0-.36-.36H17a.36.36 0 0 0-.36.36v9.12a.94.94 0 0 0 .26.61l2.07 2a1 1 0 0 0 .62.25h2.06c.2 0 .24.11.1.25l-5 4.77a.28.28 0 0 0-.08.2v.26a.29.29 0 0 0 .28.28h5.93a1 1 0 0 0 .61-.25l6.86-6.7a1 1 0 0 0 .26-.61V5a.36.36 0 0 0-.36-.36h-4.97a.36.36 0 0 0-.36.36Z" class="cls-1" data-name="Path 9"/></g><g id="Group_9" data-name="Group 9"><path id="Path_10" d="m60.33 25.62-1.87 1.83a1.15 1.15 0 0 0-.34.81v8.84a1 1 0 0 0 .3.7l2 1.92a1 1 0 0 0 .69.28h8.11a.86.86 0 0 0 .61-.25l2-2a.9.9 0 0 0 .26-.63V36a.36.36 0 0 0-.36-.36h-4.95a.36.36 0 0 0-.36.36v.45a.36.36 0 0 1-.36.36h-1.92a.36.36 0 0 1-.36-.36v-1.87a.36.36 0 0 1 .36-.36h7.57a.37.37 0 0 0 .36-.36v-5.61a1.19 1.19 0 0 0-.34-.8l-1.87-1.83a1.13 1.13 0 0 0-.79-.33h-7.95a1.16 1.16 0 0 0-.79.33Zm6.08 5.07a.36.36 0 0 1-.36.36h-1.91a.36.36 0 0 1-.36-.36v-1.86a.36.36 0 0 1 .36-.36h1.91a.36.36 0 0 1 .36.36Z" class="cls-1" data-name="Path 10"/></g><g id="Group_10" data-name="Group 10"><path id="Path_11" d="M73.92 25.3a.36.36 0 0 0-.36.36v14a.36.36 0 0 0 .36.36h4.93a.36.36 0 0 0 .36-.36V30a.36.36 0 0 1 .36-.36h1.92a.36.36 0 0 1 .36.36v9.65a.36.36 0 0 0 .36.36h4.93a.36.36 0 0 0 .36-.36V28.34a1.3 1.3 0 0 0-.4-.94l-1.75-1.72a1.34 1.34 0 0 0-.93-.38Z" class="cls-1" data-name="Path 11"/></g><g id="Group_11" data-name="Group 11"><path id="Path_12" d="M102.58 29.63a.36.36 0 0 0 .36-.36v-1.21a.67.67 0 0 0-.2-.48l-2.12-2.07a.71.71 0 0 0-.51-.21h-8.26a.77.77 0 0 0-.54.22l-2.09 2.05a.72.72 0 0 0-.22.51v3.32a.82.82 0 0 0 .25.6l2 2a.83.83 0 0 0 .59.25h5.05a.36.36 0 0 1 .36.36v1.87a.36.36 0 0 1-.36.35H95a.36.36 0 0 1-.36-.35V36a.36.36 0 0 0-.36-.36h-4.92A.36.36 0 0 0 89 36v1.27a.55.55 0 0 0 .16.38l2.18 2.13a.64.64 0 0 0 .47.19h8.31a.7.7 0 0 0 .49-.2l2.14-2.1a.61.61 0 0 0 .19-.44v-3.39a.71.71 0 0 0-.22-.52l-2-2a.9.9 0 0 0-.64-.26H95a.36.36 0 0 1-.36-.36v-1.88a.36.36 0 0 1 .36-.36h1.92a.36.36 0 0 1 .36.36v.45a.36.36 0 0 0 .36.36Z" class="cls-1" data-name="Path 12"/></g><g id="Group_12" data-name="Group 12"><path id="Path_13" d="M56.27 29.63a.36.36 0 0 0 .36-.36v-1.21a.72.72 0 0 0-.2-.48l-2.12-2.07a.72.72 0 0 0-.52-.21h-8.25a.77.77 0 0 0-.54.22l-2.1 2.05a.71.71 0 0 0-.21.51v3.32a.82.82 0 0 0 .25.6l2 2a.86.86 0 0 0 .6.25h5a.36.36 0 0 1 .35.36v1.87a.35.35 0 0 1-.35.35H48.7a.36.36 0 0 1-.36-.35V36a.36.36 0 0 0-.36-.36h-4.93a.36.36 0 0 0-.36.36v1.27a.55.55 0 0 0 .16.38L45 39.8a.63.63 0 0 0 .47.19h8.31a.7.7 0 0 0 .49-.2l2.14-2.1a.61.61 0 0 0 .19-.44v-3.41a.71.71 0 0 0-.22-.52l-2-2a.9.9 0 0 0-.64-.26h-5a.36.36 0 0 1-.36-.36v-1.88a.36.36 0 0 1 .36-.36h1.92a.36.36 0 0 1 .36.36v.45a.36.36 0 0 0 .36.36Z" class="cls-1" data-name="Path 13"/></g><g id="Group_13" data-name="Group 13"><path id="Path_14" d="M37.72.36a.36.36 0 0 0-.36-.36h-4.93a.36.36 0 0 0-.36.36v16.11a1 1 0 0 0 .25.61l2 2a1.05 1.05 0 0 0 .61.26h5.93a.37.37 0 0 0 .35-.36v-3.64a.36.36 0 0 0-.35-.36h-2.8a.36.36 0 0 1-.36-.36V9.31a.36.36 0 0 1 .39-.31h2.8a.36.36 0 0 0 .35-.36V5a.35.35 0 0 0-.35-.35h-2.8a.37.37 0 0 1-.36-.36Z" class="cls-1" data-name="Path 14"/></g></g></g></g></svg>