<svg viewBox="0 0 121 32" fill="#9ca3af" xmlns="http://www.w3.org/2000/svg">
                    <path d="M48.1298 8.46129V12.7374C46.5525 10.9991 44.1554 9.9727 41.4385 9.9727C35.4643 9.9727 30.9244 14.8575 30.9244 21.0123C30.9244 27.5452 35.6752 31.9641 41.4385 31.9641C44.3726 31.9641 46.6497 30.8697 48.1298 29.2101V31.5242H53.1365V12.9841L48.1298 8.46129ZM42.2583 27.3909C38.3068 27.3909 36.0677 24.4705 36.0677 20.9696C36.0677 16.8577 38.9379 14.5482 42.2583 14.5482C45.5787 14.5482 48.4489 16.8577 48.4489 20.9696C48.4489 24.4758 46.2161 27.3909 42.2583 27.3909Z" fill="#9ca3af"></path>
                    <path d="M72.5541 0V12.8229C70.9769 11.0648 68.5798 9.97346 65.8628 9.97346C59.8886 9.97346 55.3488 14.8582 55.3488 21.0131C55.3488 27.546 60.0995 31.9649 65.8628 31.9649C68.797 31.9649 71.074 30.8116 72.5541 29.1299V31.525H77.5608V4.52277L72.5541 0ZM66.6826 27.3909C62.7312 27.3909 60.492 24.4705 60.492 20.9695C60.492 16.8577 63.3622 14.5482 66.6826 14.5482C70.003 14.5482 72.8732 16.8577 72.8732 20.9695C72.8732 24.4758 70.6404 27.3909 66.6826 27.3909Z" fill="#9ca3af"></path>
                    <path d="M0.0789795 14.5359L5.30599 8.7874V26.4844H12.6726C17.3246 26.4844 23.7719 23.887 23.7719 16.0107C23.7719 8.13441 17.5395 5.301 12.7871 5.301H8.65166L12.9025 0.939379H15.1132C20.675 0.939379 29.0992 5.60649 29.0992 16.0107C29.0992 26.4149 19.9958 31.5265 12.9025 31.5265H0.0789795V14.5352V14.5359Z" fill="#9ca3af"></path>
                    <path d="M5.30597 8.78736L11.0282 14.5932H17.4865L11.6632 8.78736H5.30597Z" fill="#9ca3af"></path>
                    <path d="M97.1508 25.1754L97.0868 25.115C96.0482 26.2553 93.9488 27.4345 91.4017 27.4345C88.2077 27.4345 85.7553 25.7482 85.0263 22.7719H101.325C101.474 22.1358 101.598 21.4721 101.598 20.4846C101.598 14.1846 96.9991 9.9727 91.175 9.9727C85.3509 9.9727 79.8869 14.2022 79.8869 20.9688C79.8869 26.9205 84.4189 31.9649 91.4483 31.9649C95.6864 31.9649 98.3679 30.193 100.15 28.2188L97.1515 25.1761L97.1508 25.1754ZM91.0834 14.4153C94.3303 14.4153 96.4431 16.1283 96.8301 18.8136H85.046C85.7569 16.0527 87.9786 14.4153 91.0834 14.4153Z" fill="#9ca3af"></path>
                    <path d="M114.283 19.1542C113.343 18.8609 112.432 18.5974 111.552 18.3622C109.86 17.8948 108.505 17.3617 108.505 16.0939C108.505 15.0278 109.725 14.371 111.78 14.371C114.332 14.371 115.69 15.3951 116.659 16.5094L119.784 13.3392C118.123 11.2955 115.54 9.9727 111.916 9.9727C107.088 9.9727 103.757 12.4708 103.757 16.4666C103.757 19.5544 105.825 21.4377 109.504 22.4695C110.475 22.7338 111.386 22.9972 112.235 23.2615C114.253 23.7991 115.273 24.5025 115.273 25.6748C115.273 26.7181 114.377 27.5658 111.78 27.5658C109.519 27.5658 107.594 27.0053 105.818 25.015L105.593 25.2327L102.698 28.1692C104.616 30.3763 107.834 31.9641 111.69 31.9641C117.608 31.9641 120.132 28.9398 120.132 25.2785C120.132 21.3323 116.94 19.8751 114.284 19.1534L114.283 19.1542Z" fill="#9ca3af"></path>
                </svg>