<svg xmlns="http://www.w3.org/2000/svg" viewBox="0 0 1611 320">
  <path d="M72.717 25.63c2.981-.005 5.96-.042 8.941-.08 26.772-.155 52.455 5.866 72.28 24.825 19.448 20.588 24.202 47.769 24.23 75.133l.01 3.53q.007 3.678.007 7.357c.002 3.699.02 7.398.04 11.097.068 28.465-1.786 58.586-22.225 80.508l-2.047 2.32c-15.22 16.387-38.544 23.934-60.48 25.048-5.763.178-11.52.14-17.286.07l-3.078-.02c-51.74-.318-51.74-.318-62.697-7.452-2.257-3.143-1.827-6.582-1.8-10.31l-.016-2.61c-.014-2.898-.007-5.795 0-8.692l-.02-6.218c-.019-5.639-.018-11.277-.012-16.915.003-4.703-.003-9.405-.009-14.107q-.02-16.635-.001-33.27c.011-11.452-.003-22.904-.03-34.356q-.032-14.734-.022-29.468.006-8.805-.017-17.612-.021-8.28.008-16.56.005-3.042-.01-6.085a743 743 0 0 1 .016-8.292l-.03-2.446c.048-3.545.222-5.61 2.37-8.493 14.207-10.068 45.263-6.905 61.878-6.903M61 71a99 99 0 0 0-.127 5.39l-.009 3.544.007 3.923-.006 4.104q-.005 5.587 0 11.176c.003 3.89 0 7.78 0 11.67q-.004 9.8.005 19.6.007 11.348-.002 22.694-.007 9.726-.003 19.45.003 5.815-.001 11.632-.004 5.466.005 10.932.002 2.976-.005 5.95l.009 3.544.001 3.1c-.131 2.256-.131 2.256 1.126 3.291 3.932.245 7.868.229 11.806.24 1.96.01 3.92.04 5.88.073 12.227.05 23.476-1.548 33.314-9.313 14.919-15.24 13.187-38.738 13.185-58.475a1235 1235 0 0 1 .04-7.877c.03-8.903-.26-17.701-1.127-26.566l-.242-2.489c-1.14-10.545-4.62-21.305-12.961-28.378-8.603-6.026-17.32-8.338-27.79-8.348l-3.892-.004-2 .007q-3.055.005-6.11-.007l-7.423.008c-2.6-.176-2.6-.176-3.68 1.129m329.494-42.29 2.822-.04 3.055-.006 3.131-.02q3.282-.015 6.565-.015c3.354-.004 6.706-.04 10.06-.078q3.184-.009 6.37-.012l3.049-.043 2.83.018 2.492-.008C433 29 433 29 434.61 30.65c1.774 3 1.766 4.968 1.769 8.445l.024 3.789-.018 4.15.016 4.376q.017 4.713.01 9.426c-.007 4.977.009 9.954.028 14.931.038 10.578.05 21.155.061 31.733.011 11.393.027 22.786.07 34.179q.027 7.405.016 14.812c-.002 3.088.01 6.176.023 9.265q.006 2.13-.004 4.261c-.05 11.528.536 23.828 8.395 32.983 8.024 7.505 18.47 7.904 29 8 8.953-.656 16.992-2.511 23.313-9.188 9.65-12.194 7.83-31.576 7.86-46.13l.02-4.104q.022-4.37.037-8.74c.015-4.605.04-9.21.065-13.816q.104-19.627.182-39.253.042-10.877.106-21.755.04-6.87.056-13.742.016-4.256.047-8.512.013-2.923.013-5.846l.03-3.49.012-3.046C506 31 506 31 508 29c2.005-.267 2.005-.267 4.494-.29l2.822-.04 3.055-.006 3.131-.02q3.282-.015 6.565-.015c3.354-.004 6.706-.04 10.06-.078q3.184-.009 6.37-.012l3.049-.043 2.83.018 2.492-.008C555 29 555 29 556.61 30.666c1.742 2.925 1.765 4.773 1.764 8.167l.021 3.614-.023 3.956q.004 2.088.011 4.175c.01 3.782 0 7.564-.013 11.346-.011 3.971-.007 7.943-.005 11.915q0 10.026-.029 20.052-.03 11.531-.018 23.063.006 11.137-.011 22.275a4405 4405 0 0 0-.004 9.428c.025 62.492.025 62.492-21.303 85.343l-1.687 1.812c-17.717 17.106-44.182 20.289-67.669 20.177-22.907-.471-46.253-5.292-63.367-21.594-21.29-22.386-20.894-52.796-20.748-81.656.017-4.284.014-8.569.013-12.853q.004-10.755.046-21.508c.032-8.29.042-16.578.04-24.868q.002-13.282.032-26.566.005-3.819.006-7.638.003-5.978.035-11.953.008-2.196.007-4.39a793 793 0 0 1 .025-5.973l.01-3.38c.455-4.624 2.634-4.862 6.75-4.9m1073.747-7.114 2.579-.038 2.775.008 2.858-.015q2.99-.01 5.981.003c3.056.008 6.11-.02 9.165-.052q2.904-.003 5.808.002l2.775-.034 2.579.028h2.267c1.973.502 1.973.502 3.717 2.2 1.508 2.763 1.619 4.484 1.597 7.621l-.001 3.215-.047 3.45-.013 3.548c-.017 3.74-.054 7.479-.093 11.218q-.022 3.802-.04 7.605-.052 9.322-.147 18.645l1.724-.212c7.336-.863 14.579-1.009 21.963-1.038 1.91-.03 1.91-.03 3.858-.063 20.607-.083 38.57 5.836 53.642 20 17.19 17.918 19.181 41.985 19.129 65.586-.003 2.958.02 5.914.045 8.872.078 23.201-3.456 46.422-19.924 64.105-16.353 15.458-36.91 19.166-58.625 19.062l-2.405-.005c-50.315-.194-50.315-.194-67.407-10.307-1.637-3.274-1.144-6.898-1.14-10.496l-.01-2.697q-.01-4.5-.011-8.998l-.015-6.43q-.019-8.751-.024-17.504l-.012-10.924q-.02-17.073-.027-34.145-.007-19.74-.05-39.48a15297 15297 0 0 1-.034-30.476q0-9.11-.025-18.221-.023-8.565-.01-17.13.002-3.15-.013-6.3c-.013-2.859-.007-5.717.004-8.576l-.025-2.54c.049-5.664.049-5.664 1.792-7.794 2.056-1.656 3.22-1.674 5.84-1.693M1506 120v93c5.305 1.061 10.362 1.418 15.75 1.687l2.883.182c9.068.454 16.476-.284 23.644-6.17 9.95-9.815 8.745-25.96 8.84-38.88.427-22.61.427-22.61-6.742-43.757-7.826-6.795-15.553-7.77-25.625-7.437l-3.469.043c-5.273.092-10.047.46-15.281 1.332M745.875 25.625l2.554.011c15.014.076 29.713 1.11 44.571 3.364l2.613.372C809.47 31.378 809.47 31.378 813 36c.398 2.702.562 4.99.531 7.688l.012 2.24q.004 2.34-.022 4.68c-.02 2.385 0 4.766.026 7.15q-.004 2.277-.016 4.554l.025 2.154c-.063 3.342-.355 5.252-2.315 8.002-2.552 1.745-3.586 1.968-6.628 1.739l-2.6-.162-2.7-.233-2.55-.173q-2.768-.19-5.534-.4c-12.58-.933-25.12-1.475-37.735-1.534q-2.58-.018-5.162-.062a595 595 0 0 0-7.617-.069l-2.299-.053C732.88 71.544 728.63 72.916 724 76c-2.928 3.967-3.352 8.825-2.687 13.625 3.087 9.944 14.643 14.43 23.187 19q1.93 1.048 3.857 2.1c6.132 3.337 12.29 6.622 18.46 9.888C777.163 126.108 787.01 131.415 796 139l2.168 1.648c12.194 9.67 18.888 24.128 20.832 39.352 1.028 19.291-2.506 37.253-15.125 52.438-8.368 8.554-19.517 14.97-30.875 18.562l-1.857.59c-27.427 8.188-67.454 6.663-94.143-3.59-1.648-1.076-1.648-1.076-3-3a64 64 0 0 1-.398-7.844l-.01-2.32q-.002-2.425.017-4.851c.016-2.476 0-4.95-.02-7.426q.004-2.358.013-4.715l-.019-2.245c.04-2.895.093-5.074 1.636-7.574 2.369-1.363 3.95-1.356 6.68-1.275l2.979.082c4.13.222 8.25.527 12.371.88 11.44.976 22.84 1.523 34.32 1.588q2.16.012 4.322.04c12.539.258 12.539.258 23.484-5.278 3.2-6.03 4.533-13.117 2.813-19.812-4.355-9.85-15.426-15.094-24.345-20.232-2.853-1.644-5.692-3.31-8.532-4.976q-2.136-1.253-4.273-2.501a902 902 0 0 1-17.976-10.791l-2.428-1.477c-5.51-3.407-10.578-7.23-15.634-11.273l-1.936-1.49c-11.15-8.64-17.034-21.5-19.376-35.135-2.123-17.085-.12-33.952 10.316-48.09 16.854-20.05 43.302-22.894 67.871-22.66m274.619 54.1 2.822-.029 3.055.003 3.131-.013q3.283-.008 6.565-.002c3.353.003 6.706-.02 10.06-.045q3.184-.004 6.37-.002l3.049-.028 2.83.019 2.492-.002c2.77.486 3.515 1.071 5.132 3.374 1.008 2.978 1.008 2.978 1.91 6.69l.51 2.059c.558 2.267 1.1 4.538 1.643 6.81q.589 2.418 1.181 4.837c1.268 5.198 2.513 10.4 3.756 15.604l1.25 5.209a9804 9804 0 0 1 8.117 34.173 32291 32291 0 0 0 5.097 21.56q.88 3.723 1.757 7.444l1.064 4.501.485 2.063c.647 2.731 1.341 5.384 2.23 8.05 2.015.733 2.015.733 4 1l.465-2.452c2.358-12.12 5.16-24.129 7.973-36.15l.782-3.349q2.044-8.743 4.095-17.485 2.114-9.014 4.206-18.033 1.622-6.96 3.259-13.918.78-3.326 1.55-6.653c.716-3.09 1.444-6.18 2.174-9.267l.633-2.764c1.148-4.8 2.25-9.315 5.863-12.929a67 67 0 0 1 4.396-.145l2.832-.02 3.08-.003 3.143-.01q3.298-.007 6.595-.007c3.374-.002 6.747-.02 10.12-.04q3.196-.005 6.393-.005l3.074-.022 2.841.01 2.508-.005C1177 80 1177 80 1179 82c.393 5.156-.444 9.427-1.858 14.371l-.606 2.147c-.668 2.36-1.35 4.716-2.03 7.071l-1.45 5.093q-1.966 6.905-3.955 13.806c-1.388 4.83-2.767 9.664-4.147 14.498q-3.485 12.19-6.987 24.376-4.03 14.031-8.036 28.068-3.87 13.55-7.753 27.098-1.643 5.738-3.284 11.48a6833 6833 0 0 1-3.895 13.577q-.71 2.47-1.415 4.942c-2.37 8.31-4.87 16.55-7.726 24.708l-.73 2.093c-4.81 13.472-11.672 23.437-24.128 30.672-11.878 5.527-24.06 6.367-37 6.312l-2.057-.004c-30.179-.119-30.179-.119-41.943-7.308-1.857-4.775-1.184-10.398-1.187-15.438l-.038-3.142-.005-3.041-.013-2.764c.274-2.947.835-5.007 2.243-7.615 3.366-2.62 6.61-2.082 10.715-1.758l1.974.143c2.084.153 4.166.32 6.249.49 20.051 2.884 20.051 2.884 38.074-3.5 2.575-3.076 3.603-6.348 4.738-10.125l.668-2.113A508 508 0 0 0 1085 251l-2.598-.297c-14.245-1.863-14.245-1.863-19.108-7.779-4.177-5.816-6.908-11.224-8.997-18.053l-.978-3.06A834 834 0 0 1 1050 211l-.639-2.122c-3.515-11.695-6.933-23.42-10.336-35.148q-2.293-7.887-4.594-15.771-1.906-6.534-3.801-13.069a3456 3456 0 0 0-7.204-24.543q-1.693-5.684-3.379-11.37-.805-2.707-1.62-5.41-1.125-3.743-2.233-7.491l-.677-2.219c-1.187-4.047-1.939-7.639-1.517-11.857 2.453-2.453 3.124-2.256 6.494-2.275M857.24 21.596l2.579-.038 2.775.008 2.858-.015q2.99-.01 5.981.003c3.056.008 6.11-.02 9.165-.052q2.904-.003 5.808.002l2.775-.034 2.579.028h2.267c2.829.72 3.47 2.046 4.973 4.502.385 2.413.385 2.413.399 5.15l.038 3.153-.005 3.442.031 3.637q.036 4.93.043 9.86c.01 3.438.036 6.874.06 10.31.044 6.507.072 13.012.095 19.518.027 7.408.071 14.815.117 22.222.093 15.236.164 30.472.222 45.708q5.926-8.743 11.84-17.493l4.015-5.928c6.836-10.084 13.658-20.158 20.008-30.557 7.9-12.903 7.9-12.903 12.137-15.022 1.593-.1 3.19-.138 4.785-.145l3.014-.02 3.263-.003 3.34-.01q3.501-.007 7.001-.007c3.582-.002 7.164-.02 10.745-.04q3.394-.005 6.79-.005l3.263-.022 3.014.01 2.66-.005C998 80 998 80 1000 82c-.222 4.61-2.412 7.186-5.25 10.687q-1.38 1.734-2.75 3.473l-1.48 1.876c-2.68 3.464-5.22 7.028-7.77 10.589-6.243 8.693-12.58 17.315-18.94 25.922q-2.838 3.846-5.665 7.7l-1.913 2.6-3.615 4.924c-2.8 3.807-5.627 7.568-8.617 11.229 1.703 5.147 4.715 9.374 7.695 13.848l1.748 2.645q1.865 2.82 3.735 5.637 2.935 4.424 5.858 8.857a2432 2432 0 0 0 19.26 28.755l4.99 7.36c1.568 2.304 3.152 4.596 4.738 6.888l2.843 4.194 1.328 1.884c1.86 2.78 2.838 4.404 2.626 7.796C998 251 998 251 997 252c-1.6.12-3.204.17-4.808.193l-3.105.049c-4.702.044-9.403.085-14.105.108q-3.72.025-7.443.082c-3.57.055-7.14.077-10.71.091l-3.36.07c-7.679-.022-7.679-.022-11.48-2.77-1.975-2.803-3.879-5.574-5.634-8.522l-2.027-3.377-1.057-1.783q-1.654-2.789-3.325-5.567-1.735-2.887-3.465-5.776c-3.983-6.653-8.038-13.26-12.106-19.86l-1.933-3.146c-4.086-6.637-8.25-13.22-12.442-19.792l-.018 2.479q-.087 11.565-.218 23.13c-.044 3.963-.084 7.927-.11 11.891q-.04 5.739-.117 11.476-.025 2.19-.035 4.378c-.01 2.045-.037 4.089-.07 6.133l-.033 3.526c-.44 3.3-.975 4.721-3.399 6.987-1.973.501-1.973.501-4.24.502l-2.579.028-2.775-.034-2.858.005a626 626 0 0 1-5.981-.034c-3.056-.03-6.11-.021-9.165-.008q-2.904-.01-5.808-.025l-2.775.008-2.579-.038-2.267-.016c-2.557-.503-3.34-1.385-4.973-3.388a82 82 0 0 1-.381-8.844l-.014-2.774c-.012-3.08-.003-6.158.007-9.237l-.016-6.608c-.014-5.991-.008-11.983.001-17.975.008-6.26 0-12.52-.004-18.781q-.007-16.785.019-33.568.018-15.225-.003-30.448-.025-17.67-.013-35.341.008-9.358-.005-18.715-.013-8.795.015-17.59.006-3.235-.004-6.47c-.008-2.935.002-5.87.017-8.805l-.02-2.608c.058-5.815.058-5.815 1.801-7.953 2.056-1.649 3.224-1.668 5.84-1.687m547.26 71.717c11.655 11.272 16.357 26.688 16.76 42.583q.023 3.118.015 6.235l.015 3.473c.014 3.747.013 7.493.01 11.24l.014 7.856q.01 8.2.002 16.4c-.006 6.315.006 12.63.027 18.944.02 6.095.023 12.19.02 18.286q0 3.88.015 7.76c.013 3.605.006 7.21-.006 10.814l.023 3.243-.02 2.973v2.578c-.47 2.882-1.318 4.243-3.375 6.302-3.1.38-5.84.513-8.937.46-.877 0-1.753 0-2.657-.002a551 551 0 0 1-5.557-.046 653 653 0 0 0-8.513-.04q-2.7-.015-5.399-.036l-2.575-.007c-6.014-.097-6.014-.097-9.362-2.329-.687-3.625-.687-3.625-1-7l-1.477 1.137c-16.001 11.55-35.348 12.675-54.382 10.402-10.56-2.374-20.587-7.8-27.141-16.539-6.969-11.79-9.35-21.784-9.312-35.375l-.05-3.54c-.006-12.687 3.194-23.648 11.8-33.21 13.322-12.501 33.584-16.095 51.218-15.973l2.387.005c2.486.005 4.971.018 7.457.03l5.094.014q6.202.017 12.406.049c-.25-3.231-.529-6.46-.812-9.687l-.213-2.764c-.452-4.965-.99-8.402-3.975-12.549v-2c-8.32-3.24-16.089-3.393-24.937-3.25l-4.154.033c-10.323.098-20.607.592-30.909 1.217-2.332.13-4.666.238-7 .313l-2.75.113c-2.25-.426-2.25-.426-3.866-2.07-1.76-2.997-1.772-5.011-1.782-8.477l-.012-3.584.035-3.733-.035-3.72.012-3.588.01-3.271c.446-3.431 1.245-5.276 3.388-7.983 2.06-1.068 2.06-1.068 4.441-1.676l2.704-.694c32.105-7.088 75.31-12.096 102.355 10.683M1334 185c-3.871 5.34-4.173 9.932-4.25 16.438l-.078 3.933c.423 4.678 1.81 7.257 5.265 10.379 6.701 4.061 16.423 3.068 23.731 1.426 4.678-1.422 8.954-2.987 13.332-5.176v-33l-10.937-.125-3.39-.055c-8.758-.048-16.704.373-23.673 6.18M200.797 28.376l3.466.003 3.977-.034q2.187.018 4.373.04 2.299-.006 4.598-.017c4.165-.014 8.33.003 12.495.026 4.355.02 8.71.014 13.065.012q10.97.002 21.94.052c8.462.037 16.923.046 25.384.039a7349 7349 0 0 1 24.397.024q5.196.011 10.392.009 6.116 0 12.233.04 2.248.01 4.495.005c2.042-.004 4.083.013 6.125.03l3.466.012C354 29 354 29 355.865 30.294c1.993 2.995 1.603 6.505 1.604 9.987l.023 2.454q.015 2.568.009 5.135c-.001 2.621.04 5.24.085 7.86q.008 2.495.008 4.989l.05 2.377c-.029 2.215-.029 2.215-.644 5.904-4.564 4.284-10.574 3.378-16.426 3.293l-3.341-.013c-3.516-.017-7.03-.054-10.545-.092q-3.58-.024-7.159-.042-8.764-.05-17.529-.146l.008 2.756q.1 33.161.147 66.322c.016 10.691.037 21.382.071 32.073q.046 13.974.056 27.948c.004 4.935.013 9.87.035 14.804q.03 6.962.022 13.925.001 2.56.019 5.119c.014 2.324.011 4.648.003 6.973l.008 3.947C302 249 302 249 300.608 250.918c-2.136 1.437-3.558 1.469-6.124 1.486-1.366.02-1.366.02-2.76.038l-2.974-.008-3.06.015q-3.203.01-6.405-.003c-3.273-.008-6.544.02-9.816.052q-3.11.003-6.219-.002l-2.974.034-2.76-.028h-2.43C253 252 253 252 251.393 250.415c-1.906-3.309-1.76-5.767-1.753-9.579l-.008-2.188c-.004-2.42.012-4.84.028-7.26v-5.203c-.002-4.71.016-9.42.037-14.131.019-4.922.02-9.844.024-14.766.01-9.322.034-18.643.064-27.964.033-10.612.05-21.224.065-31.836.031-21.83.084-43.66.151-65.489l-1.865.034c-6.407.11-12.814.186-19.223.24q-3.586.039-7.172.103c-3.439.06-6.876.09-10.314.111l-3.236.078c-7.408.003-7.408.003-11.366-2.877-2.324-3.426-2.514-6.213-2.418-10.22v-2.162q.008-2.255.052-4.509c.042-2.291.041-4.58.034-6.872q.016-2.198.04-4.395v-2.06c.127-5.134.692-9.851 6.265-11.094m1010.442-6.764 2.579-.029 2.775.019 2.858-.01q2.99-.002 5.981.017c3.055.016 6.11 0 9.165-.02q2.904.004 5.808.013l2.775-.019 2.579.029 2.267.007c2.56.494 3.339 1.378 4.973 3.381a82 82 0 0 1 .381 8.8l.014 2.758c.012 3.064.003 6.127-.007 9.19q.006 3.286.016 6.573c.014 5.96.008 11.92-.001 17.882-.008 6.23 0 12.459.004 18.688.006 11.135-.003 22.27-.019 33.404q-.018 15.146.003 30.292.025 17.583.013 35.164a8255 8255 0 0 0 .005 18.62q.013 8.751-.015 17.504-.006 3.218.004 6.434c.008 2.922-.002 5.843-.017 8.764l.02 2.588c-.034 3.39-.14 5.867-1.801 8.866-2.044 1.882-3.084 1.974-5.84 1.975l-2.579.028-2.775-.034-2.858.005a626 626 0 0 1-5.981-.034c-3.056-.03-6.11-.021-9.165-.008q-2.904-.01-5.808-.025l-2.775.008-2.579-.038-2.267-.016c-2.557-.503-3.34-1.385-4.973-3.388a82 82 0 0 1-.381-8.844l-.014-2.774c-.012-3.08-.003-6.158.007-9.237q-.006-3.304-.016-6.608c-.014-5.991-.008-11.983.001-17.975.008-6.26 0-12.52-.004-18.781q-.007-16.785.019-33.568.018-15.225-.003-30.448-.025-17.67-.013-35.341c.004-6.238.005-12.477-.005-18.715q-.013-8.795.015-17.59.006-3.235-.004-6.47c-.008-2.935.002-5.87.017-8.805l-.02-2.608c.058-5.815.058-5.815 1.801-7.953 2.059-1.65 3.221-1.663 5.84-1.671" fill="#9ca3af"/>
</svg>
