<svg  viewBox="0 0 514 54" fill="none" xmlns="http://www.w3.org/2000/svg">
<g clip-path="url(#clip0_1921_28)">
<path d="M0 4.1335C0 7.1835 0.25 7.4335 2.75 7.1335L5.5 6.8335L5.75 23.0835L6.05 39.3335H3C0.35 39.3335 0 39.6835 0 42.3335V45.3335H17.55H35.1L34.8 38.6335L34.5 31.9335H31.5C28.7 31.9335 28.5 32.2335 28.5 35.6335V39.3335H21.5H14.5L14.6 32.5835L14.7 25.8335L21.85 25.5335L29 25.2335V22.0335V18.8335L21.7 19.1335L14.35 19.4835L14.5 13.6335L14.7 7.8335L21.35 7.5335L28 7.2335V10.2835C28 12.9835 28.3 13.3335 31 13.3335H34V7.0835V0.833495H17H0V4.1335Z" fill="#9CA3AF"/>
<path d="M45.9 1.08326C44.65 4.13326 45.9 6.83326 48.55 6.88326L51.5 6.93326L51.3 25.8333C51.1 46.3833 50.85 47.3333 45.3 47.3333C43.4 47.3333 43 47.8833 43 50.3333C43 57.0333 57.1 52.7833 59.7 45.2833C60.45 43.1333 60.9 35.1333 60.95 24.2333L61 6.68326L64 7.13326C66.85 7.53326 67 7.38326 67 4.18326V0.833261H56.5C50.75 0.833261 45.95 0.933261 45.9 1.08326Z" fill="#9CA3AF"/>
<path d="M75.7 0.983495C73.4 3.2335 75.05 7.5335 78 7.1335L81 6.6835V22.9835V39.3335H78C75.35 39.3335 75 39.6835 75 42.3335V45.3335H84.5H94V42.3335C94 39.6835 93.65 39.3335 91 39.3335H88V28.4335C88 22.4835 87.7 16.1835 87.4 14.4335C86.55 10.2335 88.1 10.5835 90.3 15.0835C91.3 17.1335 95.5 24.7835 99.65 32.0835L107.2 45.3335H111.85H116.5L116.2 26.3335L115.9 7.3335H118.95C121.7 7.3335 122 7.0335 122 4.0835V0.833495L112.75 0.933495C107.65 0.983495 103.6 1.3335 103.75 1.6835C103.9 2.0335 104 3.4835 104 4.8835C104 7.1335 104.4 7.4335 106.75 7.1335L109.5 6.8335L109.7 19.8335C109.85 28.6835 109.6 32.3335 108.95 31.3335C108.4 30.4835 104.3 23.4335 99.9 15.5835L91.8 1.3335H85.5C82 1.3335 78.55 1.0835 77.8 0.783495C77 0.533495 76.1 0.583495 75.7 0.983495Z" fill="#9CA3AF"/>
<path d="M132 4.1335C132 7.1835 132.25 7.4335 134.75 7.1335L137.5 6.8335L137.75 23.0835L138.05 39.3335H135C132.35 39.3335 132 39.6835 132 42.3335V45.3335H149.55H167.1L166.8 38.6335L166.5 31.9335H163.5C160.65 31.9835 160.5 32.1835 160.7 35.6335L160.95 39.3335H153.7H146.5L146.85 32.3335L147.15 25.3335H154.1H161V22.0835V18.8335L154 19.1835L147 19.4835V13.4335V7.3335H153.5H160V10.3335C160 12.9835 160.35 13.3335 163 13.3335H166V7.0835V0.833495H149H132V4.1335Z" fill="#9CA3AF"/>
<path d="M177 4.1835C177 7.3835 177.15 7.5335 180 7.1335L183 6.6835V22.9835V39.3335H180C177.35 39.3335 177 39.6835 177 42.3335V45.3335H187H197V42.3335C197 39.7835 196.6 39.3335 194.5 39.3335C192.1 39.3335 192 39.0835 192 33.3335V27.3335H195.85H199.65L202.6 36.2835L205.5 45.2835H212.6L219.65 45.3335L219.2 42.3335C218.85 39.8335 218.3 39.3335 216 39.3335C213.6 39.3335 212.9 38.5335 210.4 33.0835C208.85 29.6335 207.45 26.5835 207.3 26.3335C207.15 26.0335 208.3 25.0835 209.9 24.1835C215.85 20.8335 216.4 10.8835 210.9 5.4335C207.4 1.8835 205.4 1.4835 189.25 1.1335L177 0.833495V4.1835ZM203.65 9.8835C208.45 14.6835 205.45 19.8335 197.25 20.8835L192 21.5835V14.4835V7.3335H196.55C200.1 7.3335 201.65 7.8835 203.65 9.8835Z" fill="#9CA3AF"/>
<path d="M357.5 1.88303C347.1 7.23303 348.9 18.883 361 24.383C373.6 30.133 374.75 31.133 373.65 35.533C371.8 42.983 357 39.933 357 32.133C357 30.783 356.2 30.333 354 30.333H351V37.833V45.333H354C356.1 45.333 357 44.833 357 43.683C357 42.183 357.2 42.233 359 43.833C366.9 50.983 382.15 43.683 382.15 32.833C382.15 25.383 379.55 22.833 365.75 16.933C360.55 14.683 360 14.133 360 11.433C360 4.38303 371.3 4.78303 374.05 11.933C376.2 17.683 380 15.083 380 7.83303C380 1.63303 379.9 1.33303 377.6 1.33303C376.25 1.33303 375 1.88303 374.75 2.53303C374.5 3.38303 373.65 3.23303 371.95 2.03303C368.95 -0.116965 361.5 -0.166965 357.5 1.88303Z" fill="#9CA3AF"/>
<path d="M398.3 2.28316C387.1 9.13316 390 18.5832 405.6 25.8332C415 30.2332 416.45 31.8332 414.9 36.1332C412.4 42.8332 400.9 40.3332 398.55 32.5832C398.1 31.0332 397.1 30.3332 395.45 30.3332C393.05 30.3332 393 30.5332 393 37.8332C393 45.1832 393.05 45.3332 395.5 45.3332C396.95 45.3332 398 44.7832 398 43.9332C398 42.8332 398.8 42.9332 401.7 44.4332C412.65 50.0332 424.8 42.8332 423.65 31.4832C423.1 25.7832 419.55 22.1832 411.1 18.6832C400.55 14.3332 398.35 11.1332 403.55 7.68316C407.45 5.18316 413 6.78316 415 11.0832C418 17.4832 421.75 15.6832 421.7 7.83316C421.65 1.38316 421.6 1.33316 418.8 1.33316C417.25 1.33316 416 1.78316 416 2.38316C416 2.93316 414.75 2.73316 413.05 1.88316C408.95 -0.266837 402.15 -0.0668372 398.3 2.28316Z" fill="#9CA3AF"/>
<path d="M249 4.4335C249 7.3335 249.2 7.5335 252 7.1335L255 6.6835V22.9835V39.3335H252C249.35 39.3335 249 39.6835 249 42.3335V45.3335H259.5H270V42.3335C270 39.6835 269.65 39.3335 267 39.3335H264V32.3335V25.3335H272.5H281V32.3335V39.3335H278C275.35 39.3335 275 39.6835 275 42.3335V45.3335H285.5H296V42.3335C296 39.6835 295.65 39.3335 293 39.3335H290V22.9835V6.6835L293 7.1335C295.8 7.5335 296 7.3335 296 4.4335V1.3335H285.5H275V4.4335C275 7.3335 275.2 7.5335 278 7.1335L281 6.6835V12.9835V19.3335H272.5H264V13.3335V7.3335H267C269.65 7.3335 270 6.9835 270 4.3335V1.3335H259.5H249V4.4335Z" fill="#9CA3AF"/>
<path d="M306 4.3835C306 7.1835 306.3 7.4335 308.75 7.1335L311.5 6.8335L311.75 23.0835L312.05 39.3335H309C306.35 39.3335 306 39.6835 306 42.3335V45.3335H323.5H341V38.5835V31.8335L337.75 31.9335C334.65 32.0335 334.5 32.1835 334.85 35.6835L335.15 39.3335H328.1H321V32.2335V25.1835L328 25.4835L335 25.8335V22.3335V18.8335L328 19.1835L321 19.4835V13.4335V7.3335H327.5H334V10.3335C334 12.9835 334.35 13.3335 337 13.3335H340V7.3335V1.3335H323H306V4.3835Z" fill="#9CA3AF"/>
<path d="M433.8 4.3835C434.2 7.0335 434.6 7.3835 436.85 7.1335L439.5 6.8335V23.3335V39.8335L436.85 39.5835C434.6 39.3335 434.15 39.7335 433.8 42.3335L433.35 45.3335H451.15H469V38.4835V31.6335L466 31.7335C463.2 31.8335 463 32.0835 463 35.5835V39.3335H456H449V32.3335V25.3335H456.5H464V22.3335V19.3335H456.5H449V13.3335V7.3335H455.5H462V10.3835C462 13.2335 462.25 13.4335 465.1 13.1335C468.2 12.8335 468.25 12.7335 468.35 7.0835L468.5 1.3335H450.9H433.35L433.8 4.3835Z" fill="#9CA3AF"/>
<path d="M479 4.4335C479 7.3335 479.2 7.5335 482 7.1335L485 6.6835V23.4835V40.2835L482 39.6835C479.2 39.1335 479 39.2835 479 42.1835V45.3335H496.5H514V38.8335V32.3335H510.45C506.95 32.3335 506.9 32.3835 507.55 35.8335L508.2 39.3335H501.1H493.95L494.25 23.0835L494.5 6.8335L497.25 7.1335C499.7 7.4335 500 7.1835 500 4.3835V1.3335H489.5H479V4.4335Z" fill="#9CA3AF"/>
</g>
<defs>
<clipPath id="clip0_1921_28">
<rect width="514" height="54" fill="white"/>
</clipPath>
</defs>
</svg>
