<svg xmlns="http://www.w3.org/2000/svg" aria-labelledby="title" class="innofactor_logo" preserveaspectratio="xMidYMin" role="img" viewBox="0 0 841.9 113.4">
<title id="title">innofactor logo</title>
<desc class="desc">innofactor</desc>
<rect class="st0" x="24.1" y="4.3"></rect>
<g>
<path class="st1" d="M732.6,65.8C751,65.6,759,55.1,759,39s-9.4-26.9-26.4-26.9H708c-11.3,0-17.7,5.3-17.7,17V102h16V31.9
			c0-3,0.7-5.3,5.8-5.3h19.5c8.2-0.1,11.4,4.5,11.4,12.8s-2.7,13.3-13,13.3h-10.8c-4.1,0-6.3,1.4-6.3,6.3c0,4.3,1.8,6.4,3.6,9
			l26.7,34h18.6L732.6,65.8z M404.1,26.8c-0.9,0-1.5,0.6-1.9,1.7l-12.4,36.4h28.5l-12.1-36.5C405.9,27.5,405.1,26.8,404.1,26.8
			 M16.4,12.5H0v89.8h16.4V12.5z M520.4,26.8V12.1h69.5v14.7h-25.2c-1.4,0-1.5,0.6-1.5,1.4V102H547V28.2c0-0.8-0.1-1.4-1.5-1.4
			L520.4,26.8z M491.8,102.2c-26.4,0-40.9-12-40.9-44.7c0-33.5,14.4-45.4,40.9-45.4h19.8v14.7h-19.8c-17.8,0-24.7,6.1-24.7,30.7
			c0,24.1,7,30,24.7,30h20.6v14.7L491.8,102.2z M324.5,65.8c-1.4,0-1.5,0.7-1.5,1.4V102h-16V29.1c0-11.7,6.2-17,17.5-17l41.1,0.1
			v14.4h-36.8c-5.2,0-5.8,2.3-5.8,5.3v18.3c0,0.8,0.1,1.4,1.5,1.4h36.1v14.2H324.5z M660,57.4c0-25.4-6.7-31.7-24.2-31.7
			c-17.8,0-24.5,6.3-24.5,31.7s6.7,31.7,24.5,31.7C653.3,89.1,660,82.8,660,57.4 M276.6,57.4c0-25.4-6.7-31.7-24.2-31.7
			c-17.8,0-24.5,6.3-24.5,31.7s6.7,31.7,24.5,31.7C269.9,89.1,276.6,82.8,276.6,57.4 M48.6,31.9c0-3,0.6-5,5.8-5.3
			c6.6-0.3,12.9-0.1,18.6,0c11.8,0.4,18,6.6,18,20.6v55h16.2V45.5c0-23.1-14-33.1-34.3-33.5c-7.7-0.1-17.1-0.1-22.9,0.1
			c-11.3,0.5-17.7,5.3-17.7,17v73.2h16.3L48.6,31.9z M139.2,31.9c0-3,0.6-5,5.8-5.3c6.6-0.3,12.9-0.1,18.6,0
			c11.9,0.4,18,6.6,18,20.6v55h16.2V45.5c0-23.1-14-33.1-34.3-33.5c-7.7-0.1-17.1-0.1-22.9,0.1c-11.3,0.5-17.7,5.3-17.7,17v73.2
			h16.3L139.2,31.9z M361.6,102l27.8-79.5c3-8.3,7.7-11,14.7-11s12.1,2.7,15.1,11l28,79.5h-16.4l-8-23.6h-37.5l-8,23.6H361.6z
			 M676.3,57.4c0,34.3-14.2,46.5-40.6,46.5s-40.6-12.2-40.6-46.5s14.2-46.5,40.6-46.5S676.3,23.2,676.3,57.4 M292.9,57.4
			c0,34.3-14.2,46.5-40.6,46.5s-40.6-12.2-40.6-46.5s14.2-46.5,40.6-46.5S292.9,23.2,292.9,57.4"></path>
<path class="st1" d="M793.7,12.6c0,9.2-3.9,12.4-11.2,12.4s-11.2-3.3-11.2-12.4s3.9-12.4,11.2-12.4S793.7,3.4,793.7,12.6
			 M791.1,12.6c0-8.1-2.8-10.1-8.6-10.1s-8.6,2-8.6,10.1s2.8,10.1,8.6,10.1S791.1,20.7,791.1,12.6"></path>
<path class="st1" d="M784,13.6c2.6,0,3.8-1.5,3.8-3.8c0.2-1.9-1.3-3.6-3.2-3.8c-0.2,0-0.4,0-0.5,0h-3.5c-1.6,0-2.5,0.8-2.5,2.4
			v10.3h2.3V8.8c0-0.4,0.1-0.8,0.8-0.8h2.8c1.2,0,1.6,0.6,1.6,1.8s-0.4,1.9-1.8,1.9H782c-0.6,0-0.9,0.2-0.9,0.9
			c0,0.5,0.2,0.9,0.5,1.3l3.8,4.8h2.6L784,13.6z"></path>
</g>
</svg>