<svg width="128" height="32" viewBox="0 0 1460 250" fill="#9ca3af" xmlns="http://www.w3.org/2000/svg">
<path d="M116.66 43.12C82.28 43.12 54.4 70.99 54.4 105.39C54.4 139.77 82.28 167.65 116.66 167.65C151.04 167.65 178.92 139.77 178.92 105.39C178.92 70.99 151.04 43.12 116.66 43.12ZM210.16 207.95C195.36 207.95 183.36 219.95 183.36 234.75C183.36 249.55 195.36 261.56 210.16 261.56C224.96 261.56 236.96 249.56 236.96 234.75C236.96 219.95 224.96 207.95 210.16 207.95ZM279.67 151.53C279.67 65.29 201.09 37.48 201.09 37.48C189.41 15.33 152.73 0 152.73 0C281.7 0 310.71 108.41 310.71 153.14C310.71 197.88 283.7 298.63 186.58 298.63C89.46 298.63 92.01 197.6 92.01 197.6C67.53 190.75 46.91 174.42 34.79 152.67C32.5 148.56 30.23 153.95 30.23 153.95C30.23 233.74 93.9 262.35 93.9 262.35C93.9 279.28 142.26 305.88 142.26 305.88C68.11 305.88 0 232.13 0 154.35C0 76.57 54.37 35.02 54.37 35.02C71.18 20.01 93.37 10.88 117.67 10.88C170.2 10.88 212.78 53.47 212.78 105.99C212.78 192.23 124.53 200.85 124.53 200.85C124.53 250.98 160.22 264.06 160.22 264.06C155.302 255.44 152.72 245.685 152.73 235.76C152.73 204.15 178.36 178.53 209.96 178.53C251.06 178.53 263.49 215.48 263.49 215.48C277.93 194.8 279.67 151.53 279.67 151.53Z" fill="#9ca3af"/>
<path d="M727.047 137.962C737.981 137.962 746.746 135.205 753.207 129.49C760.504 123.232 764.141 114.218 764.141 102.607C764.141 92.1244 759.826 84.0367 751.061 78.5019C747.921 76.4913 739.969 73.3512 727.047 69.1267C718.281 66.1672 713.966 62.869 713.966 58.6219C713.966 52.5675 718.1 49.6081 726.391 49.6081C730.842 49.6081 735.654 50.1729 740.782 51.4605C746.904 52.929 751.377 55.1654 753.862 57.5375L759.826 38.4029C752.055 32.5066 742.115 29.5698 730.187 29.5698C720.744 29.5698 712.453 31.603 705.178 35.6468C696.074 40.6168 691.601 47.9815 691.601 57.3568C691.601 68.2231 696.074 76.1299 705.02 81.1C705.201 81.2807 713.469 84.2175 730.029 89.933C739.133 93.0506 743.606 97.6592 743.606 104.098C743.606 109.429 741.798 113.292 738.319 115.325C735.834 116.794 731.858 117.539 726.549 117.539C722.257 117.539 717.445 116.816 712.159 115.506C706.014 113.857 701.541 112.027 698.74 109.632L691.285 128.586C702.377 134.821 714.305 137.962 727.047 137.962Z" fill="#9ca3af"/>
<path d="M953.228 136.674V52.2286H982.529V31.0608H901.901V52.2286H931.382V136.674H953.228Z" fill="#9ca3af"/>
<path d="M1391.99 136.674H1417.81L1451.92 31.0608H1428.59L1405.23 101.161L1381.89 31.0608H1358.06L1391.99 136.674Z" fill="#9ca3af"/>
<path d="M651.05 49.4047L635.734 60.5195C634.92 61.1069 634.514 60.9939 634.514 60.9939C633.113 60.9939 631.983 59.8643 631.983 58.4637V34.0203C631.983 32.6422 633.113 31.49 634.514 31.49H648.52C649.921 31.49 651.05 32.6196 651.05 34.0203V49.4047Z" fill="#9ca3af"/>
<path d="M1340.21 233.409H1370.46H1370.48V241.248H1340.23V267.634H1375.66V275.428H1330.25V201.736H1375.09V209.575H1340.21V233.409Z" fill="#9ca3af"/>
<path d="M1241.92 201.714H1300.16V209.553H1275.87V275.405H1265.91V209.553H1241.92V201.714Z" fill="#9ca3af"/>
<path d="M1201.96 201.714H1211.94V275.36H1201.96L1166.49 219.086L1166.17 219.199V275.383H1156.21V201.691H1166.17L1201.66 257.92L1201.96 257.83V201.714Z" fill="#9ca3af"/>
<path d="M1090.22 233.409H1120.49V241.248H1090.22V267.634H1125.67V275.428H1080.26V201.736H1125.1V209.575H1090.22V233.409Z" fill="#9ca3af"/>
<path d="M1034.6 264.223C1037.63 261.241 1039.14 257.107 1039.14 251.843H1048.72L1048.81 252.137C1048.97 259.049 1046.53 264.833 1041.54 269.487C1036.54 274.14 1029.95 276.467 1021.75 276.467C1013.41 276.467 1006.61 273.508 1001.37 267.612C996.128 261.693 993.508 254.215 993.508 245.133V232.008C993.508 222.926 996.128 215.426 1001.37 209.507C1006.61 203.588 1013.41 200.629 1021.75 200.629C1030.08 200.629 1036.7 202.866 1041.63 207.293C1046.55 211.744 1048.95 217.618 1048.81 224.937L1048.72 225.231H1039.14C1039.14 220.08 1037.63 215.991 1034.6 212.986C1031.55 210.004 1027.28 208.491 1021.75 208.491C1016.19 208.491 1011.74 210.75 1008.44 215.223C1005.12 219.719 1003.47 225.299 1003.47 231.94V245.156C1003.47 251.866 1005.12 257.468 1008.44 261.964C1011.74 266.459 1016.17 268.696 1021.75 268.696C1027.28 268.696 1031.55 267.205 1034.6 264.223Z" fill="#9ca3af"/>
<path d="M934.884 238.559H961.564H961.587V265.511C959.847 268.244 956.797 270.752 952.46 273.056C948.1 275.338 942.475 276.49 935.562 276.49C927.067 276.49 920.019 273.666 914.462 268.041C908.882 262.393 906.103 255.119 906.103 246.173V230.991C906.103 222.045 908.791 214.748 914.145 209.123C919.522 203.476 926.435 200.652 934.907 200.652C943.107 200.652 949.591 202.843 954.335 207.203C959.102 211.563 961.406 217.143 961.27 223.875L961.18 224.191H951.601C951.601 219.696 950.156 215.946 947.264 212.964C944.35 209.982 940.238 208.491 934.907 208.491C929.259 208.491 924.718 210.592 921.284 214.816C917.828 219.018 916.111 224.372 916.111 230.856V246.15C916.111 252.701 917.941 258.078 921.578 262.325C925.215 266.55 929.869 268.673 935.539 268.673C939.899 268.673 943.333 268.108 945.886 266.979C948.439 265.849 950.336 264.517 951.579 262.958V246.353H934.884V238.559Z" fill="#9ca3af"/>
<path d="M862.864 201.714H872.826V275.36H862.864L827.373 219.086L827.08 219.199V275.383H817.117V201.691H827.08L862.57 257.92L862.864 257.83V201.714Z" fill="#9ca3af"/>
<path d="M771.28 201.714H781.31V275.405H771.28V201.714Z" fill="#9ca3af"/>
<path d="M467.476 201.714H477.438V275.405H467.476V242.852H431.691V275.405H421.729V201.714H431.691V235.013H467.476V201.714Z" fill="#9ca3af"/>
<path d="M364.099 268.673C368.821 268.673 372.548 267.612 375.304 265.488C378.06 263.364 379.438 260.495 379.416 256.836C379.416 253.492 378.218 250.691 375.824 248.432C373.429 246.173 369.205 244.252 363.173 242.671C355.695 240.819 349.844 238.085 345.642 234.47C341.44 230.856 339.339 226.315 339.339 220.848C339.339 215.087 341.621 210.275 346.139 206.435C350.635 202.572 356.508 200.652 363.738 200.652C371.509 200.652 377.676 202.866 382.285 207.271C386.893 211.676 389.13 216.827 388.994 222.701L388.859 222.994H379.348C379.348 218.815 377.902 215.358 374.988 212.625C372.051 209.891 368.324 208.513 363.76 208.513C359.084 208.513 355.537 209.643 353.052 211.902C350.567 214.161 349.325 217.098 349.325 220.713C349.325 223.92 350.68 226.586 353.391 228.732C356.102 230.878 360.507 232.753 366.629 234.38C374.062 236.3 379.709 239.124 383.595 242.874C387.458 246.624 389.401 251.256 389.401 256.745C389.401 262.687 387.074 267.453 382.398 271.068C377.721 274.682 371.622 276.467 364.099 276.467C356.96 276.467 350.68 274.479 345.236 270.503C339.769 266.527 337.148 261.196 337.306 254.509L337.419 254.192H346.93C346.93 258.801 348.692 262.393 352.194 264.901C355.718 267.431 359.671 268.673 364.099 268.673Z" fill="#9ca3af"/>
<path fill-rule="evenodd" clip-rule="evenodd" d="M548.216 30.0442C518.577 30.0442 494.562 54.0585 494.562 83.6979C494.562 113.337 518.577 137.352 548.216 137.352C577.855 137.352 601.87 113.337 601.87 83.6979C601.892 54.0811 577.855 30.0442 548.216 30.0442ZM514.826 83.6979C514.826 102.132 529.782 117.087 548.216 117.087C566.65 117.087 581.605 102.155 581.605 83.6979C581.605 65.241 566.65 50.2858 548.216 50.2858C529.782 50.2858 514.826 65.2636 514.826 83.6979Z" fill="#9ca3af"/>
<path fill-rule="evenodd" clip-rule="evenodd" d="M427.693 82.7491C424.53 88.826 420.418 93.0732 414.951 95.8294L432.324 136.674H408.151L391.931 98.4046H376.027V136.674H354.34V31.0834H403.52C411.789 31.0834 418.589 34.2235 424.033 40.4586C429.5 46.8971 432.324 54.6232 432.324 63.8178C432.324 70.6177 430.833 76.8754 427.693 82.7491ZM397.737 51.5057C401.374 51.5057 404.514 52.6127 406.999 54.9847C409.484 57.3794 410.817 60.4969 410.817 64.36C410.817 68.2231 409.484 71.544 406.999 74.1193C404.537 76.514 401.374 77.8016 397.737 77.8016H376.05V51.5057H397.737Z" fill="#9ca3af"/>
<path fill-rule="evenodd" clip-rule="evenodd" d="M569.519 232.031C569.519 223.017 566.718 215.539 561.138 209.598C555.558 203.634 548.329 200.652 539.405 200.652C530.821 200.652 523.818 203.634 518.418 209.62C513.042 215.584 510.353 223.062 510.353 232.031V245.156C510.353 254.17 513.042 261.625 518.418 267.566C523.818 273.508 530.798 276.467 539.405 276.467C548.329 276.467 555.558 273.508 561.138 267.566C566.718 261.625 569.519 254.147 569.519 245.156V232.031ZM554.112 261.873C557.749 257.581 559.557 252.001 559.557 245.156V231.94C559.557 225.186 557.727 219.651 554.09 215.336C550.452 210.998 545.55 208.852 539.405 208.852C533.6 208.852 528.968 211.021 525.512 215.336C522.055 219.673 520.316 225.186 520.316 231.94V245.156C520.316 251.979 522.055 257.536 525.512 261.851C528.968 266.188 533.6 268.334 539.405 268.334C545.573 268.334 550.498 266.188 554.112 261.873Z" fill="#9ca3af"/>
<path fill-rule="evenodd" clip-rule="evenodd" d="M630.605 245.856C638.467 245.856 644.589 243.868 648.949 239.847C653.309 235.826 655.501 230.472 655.501 223.807C655.501 217.188 653.309 211.857 648.949 207.813C644.589 203.769 638.467 201.736 630.605 201.736H602.412V275.428H612.374V245.856H630.605ZM630.628 209.553H612.397V238.062H630.628C635.621 238.062 639.348 236.707 641.811 234.041C644.296 231.353 645.516 227.964 645.516 223.875C645.516 219.809 644.273 216.398 641.788 213.664C639.303 210.931 635.598 209.553 630.628 209.553Z" fill="#9ca3af"/>
<path fill-rule="evenodd" clip-rule="evenodd" d="M714.78 245.856C722.641 245.856 728.763 243.868 733.124 239.847C737.484 235.826 739.675 230.472 739.675 223.807C739.675 217.188 737.484 211.857 733.124 207.813C728.763 203.769 722.641 201.736 714.78 201.736H686.586V275.428H696.549V245.856H714.78ZM714.802 209.553H696.571V238.062H714.802C719.795 238.062 723.522 236.707 725.985 234.041C728.47 231.353 729.69 227.964 729.69 223.875C729.69 219.809 728.447 216.398 725.962 213.664C723.477 210.931 719.772 209.553 714.802 209.553Z" fill="#9ca3af"/>
<path fill-rule="evenodd" clip-rule="evenodd" d="M1093.74 30.0442C1064.1 30.0442 1040.09 54.0585 1040.09 83.6979C1040.09 113.337 1064.1 137.352 1093.74 137.352C1123.38 137.352 1147.4 113.337 1147.4 83.6979C1147.4 54.0811 1123.38 30.0442 1093.74 30.0442ZM1060.35 83.6979C1060.35 102.132 1075.31 117.087 1093.74 117.087C1112.18 117.087 1127.13 102.155 1127.13 83.6979C1127.13 65.241 1112.18 50.2858 1093.74 50.2858C1075.31 50.2858 1060.35 65.2636 1060.35 83.6979Z" fill="#9ca3af"/>
<path fill-rule="evenodd" clip-rule="evenodd" d="M1291.05 82.7491C1287.91 88.826 1283.78 93.0732 1278.31 95.8294L1295.69 136.674H1271.51L1255.29 98.4046H1239.39V136.674H1217.72V31.0834H1266.9C1275.17 31.0834 1281.95 34.2235 1287.42 40.4586C1292.88 46.8971 1295.69 54.6232 1295.69 63.8178C1295.71 70.6177 1294.22 76.8754 1291.05 82.7491ZM1261.12 51.5057C1264.76 51.5057 1267.9 52.6127 1270.38 54.9847C1272.85 57.3794 1274.18 60.4969 1274.2 64.36C1274.2 68.2231 1272.87 71.544 1270.38 74.1193C1267.92 76.514 1264.76 77.8016 1261.12 77.8016H1239.41V51.5057H1261.12Z" fill="#9ca3af"/>
<path fill-rule="evenodd" clip-rule="evenodd" d="M1433.22 243.484C1437.13 243.484 1440.27 244.704 1442.59 247.121C1444.92 249.539 1446.1 252.747 1446.1 256.745V263.477C1446.1 265.827 1446.3 268.131 1446.66 270.368C1447.05 272.604 1447.88 274.276 1449.19 275.428H1459.45V274.208C1458.21 273.056 1457.32 271.588 1456.83 269.758C1456.33 267.95 1456.06 265.872 1456.06 263.59V256.655C1456.06 252.295 1455.18 248.658 1453.39 245.698C1451.63 242.739 1448.72 240.615 1444.65 239.305C1448.42 237.633 1451.31 235.419 1453.28 232.618C1455.25 229.817 1456.24 226.518 1456.24 222.746C1456.24 215.923 1454.12 210.727 1449.87 207.158C1445.6 203.566 1439.45 201.781 1431.39 201.781H1406.18V275.428H1416.14V243.484H1433.22ZM1431.41 209.553H1416.16H1416.14V235.623H1430.37C1436.02 235.623 1440.06 234.561 1442.55 232.415C1445.03 230.268 1446.28 226.993 1446.28 222.61C1446.28 218.453 1445.08 215.245 1442.66 212.964C1440.27 210.705 1436.5 209.553 1431.41 209.553Z" fill="#9ca3af"/>
</svg>
