<?xml version="1.0" standalone="no"?>
<!DOCTYPE svg PUBLIC "-//W3C//DTD SVG 20010904//EN"
 "http://www.w3.org/TR/2001/REC-SVG-20010904/DTD/svg10.dtd">
<svg version="1.0" xmlns="http://www.w3.org/2000/svg"
 width="142.000000pt" height="72.000000pt" viewBox="0 0 142.000000 72.000000"
 preserveAspectRatio="xMidYMid meet">
<g transform="translate(0.000000,72.000000) scale(0.050000,-0.050000)"
fill="#9ca3af" stroke="none">
<path d="M251 1387 c-277 -79 -263 -469 28 -770 202 -208 236 -395 75 -413
-83 -10 -114 27 -114 133 l0 93 -95 -3 -95 -3 2 -107 c4 -210 98 -307 298
-307 354 0 420 419 115 724 -238 239 -288 466 -102 466 64 0 97 -47 97 -139 0
-60 2 -61 102 -61 l102 0 -14 105 c-31 224 -194 339 -399 282z"/>
<path d="M905 1370 c-234 -102 -214 -451 42 -723 172 -184 193 -219 193 -322
0 -190 -190 -176 -204 15 l-6 89 -97 0 -98 1 10 -125 c17 -211 105 -295 304
-294 359 1 411 410 93 738 -186 193 -238 330 -161 422 63 76 179 -1 179 -117
0 -55 3 -56 95 -50 l95 6 -7 90 c-19 239 -222 364 -438 270z"/>
<path d="M1608 1363 c-139 -65 -148 -105 -148 -662 0 -634 24 -689 294 -690
213 -1 306 109 306 364 l0 145 -100 0 -100 0 0 -136 c0 -170 -87 -249 -176
-160 -34 34 -34 918 0 952 84 84 176 10 176 -140 l0 -116 100 0 100 0 0 125
c0 281 -212 430 -452 318z"/>
<path d="M2180 700 l0 -680 112 0 113 0 -8 255 -7 255 72 -6 c226 -20 325 108
327 424 2 359 -68 432 -414 432 l-195 0 0 -680z m376 456 c33 -33 33 -379 0
-412 -13 -13 -56 -24 -95 -24 l-72 0 -1 230 -1 230 73 0 c39 0 83 -11 96 -24z"/>
</g>
</svg>
